<svg width="43" height="10" viewBox="0 0 43 10" fill="none" xmlns="http://www.w3.org/2000/svg">
<path d="M2.46 7.968C2.452 8.016 2.444 8.092 2.436 8.196C2.428 8.3 2.416 8.408 2.4 8.52C2.392 8.632 2.376 8.736 2.352 8.832C2.336 8.928 2.316 8.988 2.292 9.012C2.268 9.036 2.172 9.052 2.004 9.06C1.836 9.076 1.648 9.084 1.44 9.084C1.24 9.092 1.048 9.096 0.864 9.096C0.68 9.096 0.56 9.096 0.504 9.096C0.36 9.096 0.248 9.084 0.168 9.06C0.088 9.036 0.068 8.936 0.108 8.76C0.132 8.648 0.172 8.452 0.228 8.172C0.284 7.884 0.348 7.544 0.42 7.152C0.492 6.752 0.572 6.32 0.66 5.856C0.756 5.384 0.848 4.912 0.936 4.44C1.032 3.968 1.124 3.512 1.212 3.072C1.3 2.624 1.38 2.228 1.452 1.884C1.532 1.532 1.6 1.248 1.656 1.032C1.712 0.816 1.752 0.7 1.776 0.684C1.792 0.676 1.824 0.672 1.872 0.672C1.92 0.664 1.972 0.659999 2.028 0.659999C2.092 0.659999 2.152 0.664 2.208 0.672C2.264 0.672 2.304 0.672 2.328 0.672C2.832 0.688 3.32 0.672 3.792 0.624C4.264 0.575999 4.752 0.531999 5.256 0.491999C5.336 0.483999 5.404 0.503999 5.46 0.551999C5.516 0.6 5.56 0.66 5.592 0.732C5.624 0.804 5.648 0.884 5.664 0.972C5.688 1.052 5.708 1.124 5.724 1.188C5.86 1.74 5.96 2.292 6.024 2.844C6.096 3.396 6.164 3.948 6.228 4.5C6.3 5.132 6.36 5.78 6.408 6.444C6.464 7.1 6.56 7.74 6.696 8.364C6.704 8.404 6.716 8.456 6.732 8.52C6.748 8.584 6.756 8.652 6.756 8.724C6.764 8.796 6.764 8.864 6.756 8.928C6.748 8.984 6.72 9.024 6.672 9.048C6.648 9.064 6.572 9.076 6.444 9.084C6.316 9.092 6.16 9.096 5.976 9.096C5.792 9.104 5.592 9.108 5.376 9.108C5.16 9.108 4.956 9.104 4.764 9.096C4.58 9.096 4.416 9.092 4.272 9.084C4.136 9.084 4.052 9.08 4.02 9.072C3.94 9.056 3.896 9.02 3.888 8.964C3.848 8.812 3.828 8.652 3.828 8.484C3.836 8.316 3.832 8.152 3.816 7.992C3.592 7.968 3.364 7.96 3.132 7.968C2.908 7.968 2.684 7.968 2.46 7.968ZM3.468 2.748C3.332 3.348 3.204 3.944 3.084 4.536C2.972 5.12 2.86 5.712 2.748 6.312C2.908 6.296 3.072 6.284 3.24 6.276C3.408 6.268 3.572 6.272 3.732 6.288C3.7 5.696 3.656 5.108 3.6 4.524C3.552 3.932 3.508 3.34 3.468 2.748ZM10.0212 0.912C10.2532 0.688 10.5252 0.504 10.8372 0.36C11.1492 0.208 11.4732 0.14 11.8092 0.155999C12.2412 0.172 12.6252 0.288 12.9612 0.504C13.3052 0.72 13.6012 1.004 13.8492 1.356C14.0972 1.708 14.2972 2.112 14.4492 2.568C14.6012 3.024 14.7012 3.5 14.7492 3.996C14.7972 4.492 14.7932 4.992 14.7372 5.496C14.6812 5.992 14.5652 6.46 14.3892 6.9C14.2132 7.332 13.9772 7.724 13.6812 8.076C13.3932 8.42 13.0412 8.684 12.6252 8.868C12.3452 8.988 12.0572 9.072 11.7612 9.12C11.4652 9.168 11.1692 9.2 10.8732 9.216C10.4652 9.24 10.0652 9.248 9.67322 9.24C9.28122 9.232 8.88122 9.236 8.47322 9.252C8.40122 9.252 8.30922 9.256 8.19722 9.264C8.09322 9.28 7.98522 9.284 7.87322 9.276C7.76922 9.268 7.67322 9.244 7.58522 9.204C7.49722 9.164 7.44122 9.1 7.41722 9.012C7.39322 8.924 7.38522 8.832 7.39322 8.736C7.40122 8.64 7.40922 8.548 7.41722 8.46C7.44922 7.884 7.46122 7.312 7.45322 6.744C7.44522 6.168 7.44122 5.592 7.44122 5.016C7.44122 4.272 7.44522 3.532 7.45322 2.796C7.46922 2.06 7.46122 1.32 7.42922 0.576C7.42922 0.512 7.42922 0.444 7.42922 0.372C7.42922 0.299999 7.46122 0.24 7.52522 0.192C7.54122 0.175999 7.61322 0.159999 7.74122 0.144C7.86922 0.128 8.02122 0.116 8.19722 0.107999C8.38122 0.0999994 8.57722 0.0959995 8.78522 0.0959995C8.99322 0.0959995 9.18922 0.104 9.37322 0.12C9.55722 0.136 9.70922 0.164 9.82922 0.204C9.95722 0.236 10.0332 0.279999 10.0572 0.335999C10.0652 0.352 10.0652 0.388 10.0572 0.443999C10.0572 0.492 10.0532 0.548 10.0452 0.611999C10.0452 0.675999 10.0412 0.736 10.0332 0.792C10.0252 0.848 10.0212 0.888 10.0212 0.912ZM9.90122 6.588C10.1252 6.612 10.3612 6.608 10.6092 6.576C10.8652 6.544 11.1052 6.476 11.3292 6.372C11.5612 6.268 11.7652 6.136 11.9412 5.976C12.1172 5.808 12.2372 5.604 12.3012 5.364C12.3492 5.18 12.3772 4.996 12.3852 4.812C12.4012 4.62 12.4012 4.432 12.3852 4.248C12.3692 4.08 12.3452 3.908 12.3132 3.732C12.2892 3.556 12.2412 3.388 12.1692 3.228C12.0732 3.028 11.9372 2.876 11.7612 2.772C11.5852 2.668 11.3972 2.608 11.1972 2.592C10.9972 2.576 10.7932 2.604 10.5852 2.676C10.3852 2.74 10.2132 2.844 10.0692 2.988C10.0532 3.004 10.0372 3.024 10.0212 3.048C10.0052 3.072 9.98922 3.092 9.97322 3.108C9.97322 3.692 9.96522 4.272 9.94922 4.848C9.93322 5.424 9.91722 6.004 9.90122 6.588ZM17.3663 7.968C17.3583 8.016 17.3503 8.092 17.3423 8.196C17.3343 8.3 17.3223 8.408 17.3063 8.52C17.2983 8.632 17.2823 8.736 17.2583 8.832C17.2423 8.928 17.2223 8.988 17.1983 9.012C17.1743 9.036 17.0783 9.052 16.9103 9.06C16.7423 9.076 16.5543 9.084 16.3463 9.084C16.1463 9.092 15.9543 9.096 15.7703 9.096C15.5863 9.096 15.4663 9.096 15.4103 9.096C15.2663 9.096 15.1543 9.084 15.0743 9.06C14.9943 9.036 14.9743 8.936 15.0143 8.76C15.0383 8.648 15.0783 8.452 15.1343 8.172C15.1903 7.884 15.2543 7.544 15.3263 7.152C15.3983 6.752 15.4783 6.32 15.5663 5.856C15.6623 5.384 15.7543 4.912 15.8423 4.44C15.9383 3.968 16.0303 3.512 16.1183 3.072C16.2063 2.624 16.2863 2.228 16.3583 1.884C16.4383 1.532 16.5063 1.248 16.5623 1.032C16.6183 0.816 16.6583 0.7 16.6823 0.684C16.6983 0.676 16.7303 0.672 16.7783 0.672C16.8263 0.664 16.8783 0.659999 16.9343 0.659999C16.9983 0.659999 17.0583 0.664 17.1143 0.672C17.1703 0.672 17.2103 0.672 17.2343 0.672C17.7383 0.688 18.2263 0.672 18.6983 0.624C19.1703 0.575999 19.6583 0.531999 20.1623 0.491999C20.2423 0.483999 20.3103 0.503999 20.3663 0.551999C20.4223 0.6 20.4663 0.66 20.4983 0.732C20.5303 0.804 20.5543 0.884 20.5703 0.972C20.5943 1.052 20.6143 1.124 20.6303 1.188C20.7663 1.74 20.8663 2.292 20.9303 2.844C21.0023 3.396 21.0703 3.948 21.1343 4.5C21.2063 5.132 21.2663 5.78 21.3143 6.444C21.3703 7.1 21.4663 7.74 21.6023 8.364C21.6103 8.404 21.6223 8.456 21.6383 8.52C21.6543 8.584 21.6623 8.652 21.6623 8.724C21.6703 8.796 21.6703 8.864 21.6623 8.928C21.6543 8.984 21.6263 9.024 21.5783 9.048C21.5543 9.064 21.4783 9.076 21.3503 9.084C21.2223 9.092 21.0663 9.096 20.8823 9.096C20.6983 9.104 20.4983 9.108 20.2823 9.108C20.0663 9.108 19.8623 9.104 19.6703 9.096C19.4863 9.096 19.3223 9.092 19.1783 9.084C19.0423 9.084 18.9583 9.08 18.9263 9.072C18.8463 9.056 18.8023 9.02 18.7943 8.964C18.7543 8.812 18.7343 8.652 18.7343 8.484C18.7423 8.316 18.7383 8.152 18.7223 7.992C18.4983 7.968 18.2703 7.96 18.0383 7.968C17.8143 7.968 17.5903 7.968 17.3663 7.968ZM18.3743 2.748C18.2383 3.348 18.1103 3.944 17.9902 4.536C17.8783 5.12 17.7663 5.712 17.6543 6.312C17.8143 6.296 17.9783 6.284 18.1463 6.276C18.3143 6.268 18.4783 6.272 18.6383 6.288C18.6063 5.696 18.5623 5.108 18.5063 4.524C18.4583 3.932 18.4143 3.34 18.3743 2.748ZM24.064 4.596C24.064 5.14 24.072 5.684 24.088 6.228C24.112 6.764 24.14 7.304 24.172 7.848C24.188 8.056 24.208 8.276 24.232 8.508C24.264 8.732 24.272 8.948 24.256 9.156C24.256 9.212 24.24 9.252 24.208 9.276C24.176 9.3 24.136 9.316 24.088 9.324C24.048 9.332 24 9.332 23.944 9.324C23.896 9.324 23.852 9.324 23.812 9.324C23.564 9.324 23.32 9.324 23.08 9.324C22.84 9.324 22.596 9.316 22.348 9.3C22.268 9.356 22.216 9.34 22.192 9.252C22.168 9.164 22.156 9.056 22.156 8.928C22.164 8.8 22.176 8.672 22.192 8.544C22.208 8.416 22.216 8.34 22.216 8.316C22.256 7.5 22.28 6.688 22.288 5.88C22.304 5.072 22.332 4.26 22.372 3.444C22.388 3.116 22.404 2.792 22.42 2.472C22.444 2.144 22.448 1.816 22.432 1.488C22.408 1.44 22.408 1.4 22.432 1.368C22.456 1.336 22.492 1.316 22.54 1.308C22.708 1.292 22.884 1.296 23.068 1.32C23.252 1.336 23.432 1.344 23.608 1.344C23.856 1.352 24.1 1.348 24.34 1.332C24.58 1.316 24.824 1.3 25.072 1.284C25.112 1.284 25.148 1.288 25.18 1.296C25.22 1.304 25.252 1.328 25.276 1.368C25.404 1.6 25.528 1.904 25.648 2.28C25.776 2.656 25.904 3.052 26.032 3.468C26.16 3.884 26.288 4.296 26.416 4.704C26.544 5.112 26.676 5.468 26.812 5.772C26.924 5.3 27.036 4.832 27.148 4.368C27.26 3.904 27.376 3.44 27.496 2.976C27.608 2.568 27.728 2.164 27.856 1.764C27.984 1.364 28.092 0.959999 28.18 0.551999C28.188 0.511999 28.196 0.464 28.204 0.408C28.212 0.352 28.22 0.299999 28.228 0.252C28.244 0.204 28.264 0.164 28.288 0.132C28.32 0.0999997 28.364 0.0879996 28.42 0.0959995C28.54 0.112 28.66 0.124 28.78 0.132C28.9 0.14 29.02 0.148 29.14 0.155999C29.38 0.172 29.624 0.196 29.872 0.228C30.12 0.252 30.364 0.256 30.604 0.24C30.724 0.232 30.852 0.208 30.988 0.167999C31.132 0.127999 31.26 0.115999 31.372 0.132C31.436 0.14 31.476 0.164 31.492 0.204C31.508 0.236 31.524 0.279999 31.54 0.335999C31.58 0.543999 31.596 0.763999 31.588 0.995999C31.58 1.22 31.58 1.436 31.588 1.644C31.604 2.228 31.616 2.808 31.624 3.384C31.632 3.96 31.644 4.536 31.66 5.112C31.66 5.184 31.668 5.328 31.684 5.544C31.7 5.752 31.716 5.996 31.732 6.276C31.756 6.556 31.776 6.848 31.792 7.152C31.816 7.456 31.836 7.736 31.852 7.992C31.868 8.248 31.876 8.464 31.876 8.64C31.884 8.816 31.884 8.912 31.876 8.928C31.86 8.96 31.788 8.98 31.66 8.988C31.532 8.996 31.392 9 31.24 9C31.088 9 30.94 9 30.796 9C30.652 8.992 30.556 8.988 30.508 8.988C30.3 8.98 30.088 8.996 29.872 9.036C29.664 9.076 29.46 9.092 29.26 9.084C29.228 9.084 29.196 9.064 29.164 9.024C29.14 8.992 29.124 8.96 29.116 8.928C29.076 8.72 29.048 8.432 29.032 8.064C29.024 7.688 29.02 7.296 29.02 6.888C29.028 6.48 29.036 6.08 29.044 5.688C29.052 5.296 29.056 4.976 29.056 4.728C28.84 5.352 28.64 5.98 28.456 6.612C28.28 7.236 28.08 7.86 27.856 8.484C27.88 8.524 27.88 8.556 27.856 8.58C27.84 8.604 27.82 8.624 27.796 8.64C27.764 8.664 27.644 8.68 27.436 8.688C27.228 8.688 26.992 8.692 26.728 8.7C26.472 8.7 26.224 8.704 25.984 8.712C25.744 8.72 25.576 8.732 25.48 8.748L25.384 8.712C25.368 8.688 25.328 8.58 25.264 8.388C25.2 8.196 25.124 7.964 25.036 7.692C24.948 7.412 24.856 7.112 24.76 6.792C24.664 6.464 24.568 6.152 24.472 5.856C24.384 5.56 24.3 5.3 24.22 5.076C24.148 4.844 24.096 4.684 24.064 4.596ZM34.4586 4.596C34.4586 5.14 34.4666 5.684 34.4826 6.228C34.5066 6.764 34.5346 7.304 34.5666 7.848C34.5826 8.056 34.6026 8.276 34.6266 8.508C34.6586 8.732 34.6666 8.948 34.6506 9.156C34.6506 9.212 34.6346 9.252 34.6026 9.276C34.5706 9.3 34.5306 9.316 34.4826 9.324C34.4426 9.332 34.3946 9.332 34.3386 9.324C34.2906 9.324 34.2466 9.324 34.2066 9.324C33.9586 9.324 33.7146 9.324 33.4746 9.324C33.2346 9.324 32.9906 9.316 32.7426 9.3C32.6626 9.356 32.6106 9.34 32.5866 9.252C32.5626 9.164 32.5506 9.056 32.5506 8.928C32.5586 8.8 32.5706 8.672 32.5866 8.544C32.6026 8.416 32.6106 8.34 32.6106 8.316C32.6506 7.5 32.6746 6.688 32.6826 5.88C32.6986 5.072 32.7266 4.26 32.7666 3.444C32.7826 3.116 32.7986 2.792 32.8146 2.472C32.8386 2.144 32.8426 1.816 32.8266 1.488C32.8026 1.44 32.8026 1.4 32.8266 1.368C32.8506 1.336 32.8866 1.316 32.9346 1.308C33.1026 1.292 33.2786 1.296 33.4626 1.32C33.6466 1.336 33.8266 1.344 34.0026 1.344C34.2506 1.352 34.4946 1.348 34.7346 1.332C34.9746 1.316 35.2186 1.3 35.4666 1.284C35.5066 1.284 35.5426 1.288 35.5746 1.296C35.6146 1.304 35.6466 1.328 35.6706 1.368C35.7986 1.6 35.9226 1.904 36.0426 2.28C36.1706 2.656 36.2986 3.052 36.4266 3.468C36.5546 3.884 36.6826 4.296 36.8106 4.704C36.9386 5.112 37.0706 5.468 37.2066 5.772C37.3186 5.3 37.4306 4.832 37.5426 4.368C37.6546 3.904 37.7706 3.44 37.8906 2.976C38.0026 2.568 38.1226 2.164 38.2506 1.764C38.3786 1.364 38.4866 0.959999 38.5746 0.551999C38.5826 0.511999 38.5906 0.464 38.5986 0.408C38.6066 0.352 38.6146 0.299999 38.6226 0.252C38.6386 0.204 38.6586 0.164 38.6826 0.132C38.7146 0.0999997 38.7586 0.0879996 38.8146 0.0959995C38.9346 0.112 39.0546 0.124 39.1746 0.132C39.2946 0.14 39.4146 0.148 39.5346 0.155999C39.7746 0.172 40.0186 0.196 40.2666 0.228C40.5146 0.252 40.7586 0.256 40.9986 0.24C41.1186 0.232 41.2466 0.208 41.3826 0.167999C41.5266 0.127999 41.6546 0.115999 41.7666 0.132C41.8306 0.14 41.8706 0.164 41.8866 0.204C41.9026 0.236 41.9186 0.279999 41.9346 0.335999C41.9746 0.543999 41.9906 0.763999 41.9826 0.995999C41.9746 1.22 41.9746 1.436 41.9826 1.644C41.9986 2.228 42.0106 2.808 42.0186 3.384C42.0266 3.96 42.0386 4.536 42.0546 5.112C42.0546 5.184 42.0626 5.328 42.0786 5.544C42.0946 5.752 42.1106 5.996 42.1266 6.276C42.1506 6.556 42.1706 6.848 42.1866 7.152C42.2106 7.456 42.2306 7.736 42.2466 7.992C42.2626 8.248 42.2706 8.464 42.2706 8.64C42.2786 8.816 42.2786 8.912 42.2706 8.928C42.2546 8.96 42.1826 8.98 42.0546 8.988C41.9266 8.996 41.7866 9 41.6346 9C41.4826 9 41.3346 9 41.1906 9C41.0466 8.992 40.9506 8.988 40.9026 8.988C40.6946 8.98 40.4826 8.996 40.2666 9.036C40.0586 9.076 39.8546 9.092 39.6546 9.084C39.6226 9.084 39.5906 9.064 39.5586 9.024C39.5346 8.992 39.5186 8.96 39.5106 8.928C39.4706 8.72 39.4426 8.432 39.4266 8.064C39.4186 7.688 39.4146 7.296 39.4146 6.888C39.4226 6.48 39.4306 6.08 39.4386 5.688C39.4466 5.296 39.4506 4.976 39.4506 4.728C39.2346 5.352 39.0346 5.98 38.8506 6.612C38.6746 7.236 38.4746 7.86 38.2506 8.484C38.2746 8.524 38.2746 8.556 38.2506 8.58C38.2346 8.604 38.2146 8.624 38.1906 8.64C38.1586 8.664 38.0386 8.68 37.8306 8.688C37.6226 8.688 37.3866 8.692 37.1226 8.7C36.8666 8.7 36.6186 8.704 36.3786 8.712C36.1386 8.72 35.9706 8.732 35.8746 8.748L35.7786 8.712C35.7626 8.688 35.7226 8.58 35.6586 8.388C35.5946 8.196 35.5186 7.964 35.4306 7.692C35.3426 7.412 35.2506 7.112 35.1546 6.792C35.0586 6.464 34.9626 6.152 34.8666 5.856C34.7786 5.56 34.6946 5.3 34.6146 5.076C34.5426 4.844 34.4906 4.684 34.4586 4.596Z" fill="#212529"/>
</svg>
