<svg width="103" height="71" viewBox="0 0 103 71" fill="none" xmlns="http://www.w3.org/2000/svg">
<path d="M77.242 35.07L52.952 9.09805C52.209 8.30305 50.953 8.28905 50.192 9.06705L24.725 35.114C23.952 35.905 22.67 35.8751 21.934 35.0501L9.50298 21.103C8.21098 19.654 5.83199 20.833 6.20299 22.739L10.199 43.2581C10.923 46.9741 14.178 49.657 17.965 49.657H84.509C88.295 49.657 91.551 46.9741 92.275 43.2581L96.307 22.555C96.676 20.663 94.328 19.4791 93.025 20.8991L80.043 35.057C79.292 35.876 78.001 35.883 77.242 35.07Z" fill="url(#paint0_linear_217_135)"/>
<path d="M9.36297 38.959C9.49697 39.013 9.62799 39.077 9.76299 39.13C16.714 41.867 23.919 42.8081 31.337 43.1751C39.643 43.5861 47.974 43.475 56.276 43.044C64.484 42.618 72.318 41.599 80.22 39.281C84.051 38.158 87.823 36.8301 91.308 34.8551C92.322 34.2801 93.296 33.665 94.265 33.047L96.308 22.554C96.677 20.662 94.329 19.4781 93.026 20.8981L80.044 35.056C79.292 35.876 78.002 35.882 77.242 35.07L52.952 9.09805C52.209 8.30305 50.953 8.28905 50.192 9.06705L24.725 35.114C23.952 35.905 22.67 35.8751 21.934 35.0501L9.50298 21.103C8.21098 19.654 5.83199 20.833 6.20299 22.739L9.36297 38.959Z" fill="url(#paint1_radial_217_135)"/>
<path d="M10.424 16.969C10.424 19.848 8.08998 22.182 5.21198 22.182C2.33298 22.182 0 19.848 0 16.969C0 14.09 2.33398 11.757 5.21198 11.757C8.09098 11.757 10.424 14.091 10.424 16.969Z" fill="url(#paint2_linear_217_135)"/>
<path d="M56.45 5.212C56.45 8.091 54.116 10.424 51.238 10.424C48.359 10.424 46.026 8.09 46.026 5.212C46.026 2.333 48.36 0 51.238 0C54.116 0 56.45 2.334 56.45 5.212Z" fill="url(#paint3_linear_217_135)"/>
<path d="M92.0139 17.167C92.0139 20.046 94.3479 22.379 97.2269 22.379C100.106 22.379 102.439 20.045 102.439 17.167C102.439 14.288 100.105 11.954 97.2269 11.954C94.3479 11.954 92.0139 14.288 92.0139 17.167Z" fill="url(#paint4_linear_217_135)"/>
<path d="M86.771 49.656H15.667C12.772 49.656 10.424 52.003 10.424 54.899V65.691C10.424 68.587 12.771 70.934 15.667 70.934H86.771C89.667 70.934 92.0139 68.587 92.0139 65.691V54.899C92.0139 52.004 89.667 49.656 86.771 49.656Z" fill="url(#paint5_linear_217_135)"/>
<defs>
<linearGradient id="paint0_linear_217_135" x1="33.6567" y1="59.9401" x2="66.1524" y2="3.65616" gradientUnits="userSpaceOnUse">
<stop stop-color="#E69627"/>
<stop offset="1" stop-color="#F5DD4D"/>
</linearGradient>
<radialGradient id="paint1_radial_217_135" cx="0" cy="0" r="1" gradientUnits="userSpaceOnUse" gradientTransform="translate(63.259 58.6204) scale(60.5335 31.7801)">
<stop stop-color="white"/>
<stop offset="1" stop-color="white" stop-opacity="0"/>
</radialGradient>
<linearGradient id="paint2_linear_217_135" x1="2.6054" y1="21.4842" x2="7.8187" y2="12.4545" gradientUnits="userSpaceOnUse">
<stop stop-color="#E69627"/>
<stop offset="1" stop-color="#F5DD4D"/>
</linearGradient>
<linearGradient id="paint3_linear_217_135" x1="48.631" y1="9.7271" x2="53.8443" y2="0.697408" gradientUnits="userSpaceOnUse">
<stop stop-color="#E69627"/>
<stop offset="1" stop-color="#F5DD4D"/>
</linearGradient>
<linearGradient id="paint4_linear_217_135" x1="94.6196" y1="21.6817" x2="99.8329" y2="12.652" gradientUnits="userSpaceOnUse">
<stop stop-color="#E69627"/>
<stop offset="1" stop-color="#F5DD4D"/>
</linearGradient>
<linearGradient id="paint5_linear_217_135" x1="51.2191" y1="71.0775" x2="51.2191" y2="50.7781" gradientUnits="userSpaceOnUse">
<stop stop-color="#DC7E22"/>
<stop offset="1" stop-color="#F6BA26"/>
</linearGradient>
</defs>
</svg>
