<svg width="526" height="112" viewBox="0 0 526 112" fill="none" xmlns="http://www.w3.org/2000/svg">
<path d="M15.2054 1.532L23.0774 0.811997V14.636H16.8854L15.2054 1.532ZM24.1814 14.636V2.204L31.9574 1.052L29.9894 15.5L24.1814 14.636ZM53.3654 12.14L53.4614 39.404L43.9574 39.836L43.8614 12.38L33.8774 12.62L33.2054 3.02L63.3494 2.3L64.1174 11.9L53.3654 12.14ZM76.7797 13.676C77.8997 13.676 79.0037 13.964 80.0917 14.54C81.1797 15.084 82.1397 15.868 82.9717 16.892L79.6597 24.332C78.7317 23.052 77.4677 22.412 75.8677 22.412C74.1397 22.412 72.8437 23.036 71.9797 24.284C71.1477 25.5 70.6677 27.5 70.5397 30.284V39.5H61.6117V13.916H70.5397V16.124C71.4037 15.356 72.3797 14.764 73.4677 14.348C74.5877 13.9 75.6917 13.676 76.7797 13.676ZM100.399 39.5L100.351 37.244C99.4867 37.98 98.4147 38.572 97.1347 39.02C95.8547 39.468 94.5427 39.692 93.1987 39.692C91.0867 39.692 89.1347 39.116 87.3427 37.964C85.5507 36.78 84.1267 35.196 83.0707 33.212C82.0147 31.228 81.4867 29.052 81.4867 26.684C81.4867 24.284 82.0307 22.092 83.1187 20.108C84.2067 18.124 85.6947 16.572 87.5827 15.452C89.5027 14.3 91.6147 13.724 93.9187 13.724C95.1667 13.724 96.3347 13.932 97.4227 14.348C98.5427 14.764 99.4387 15.34 100.111 16.076V14.012H108.079L109.183 39.5H100.399ZM94.8307 31.772C95.6627 31.772 96.4627 31.516 97.2307 31.004C97.9987 30.492 98.6067 29.82 99.0547 28.988C99.5027 28.124 99.7267 27.212 99.7267 26.252C99.7267 24.94 99.2947 23.852 98.4307 22.988C97.5987 22.092 96.5427 21.644 95.2627 21.644C93.8547 21.644 92.6227 22.14 91.5667 23.132C90.5107 24.124 89.9827 25.308 89.9827 26.684C89.9827 27.516 90.2067 28.332 90.6547 29.132C91.1347 29.932 91.7427 30.572 92.4787 31.052C93.2467 31.532 94.0307 31.772 94.8307 31.772ZM122.388 39.836C120.052 39.836 117.876 39.228 115.86 38.012C113.844 36.764 112.244 35.116 111.06 33.068C109.876 30.988 109.284 28.764 109.284 26.396C109.284 24.028 109.844 21.868 110.964 19.916C112.116 17.932 113.652 16.364 115.572 15.212C117.524 14.06 119.668 13.484 122.004 13.484C124.084 13.484 126.116 13.964 128.1 14.924C130.116 15.884 131.748 17.18 132.996 18.812C134.244 20.444 134.868 22.204 134.868 24.092L126.804 24.812C126.516 23.884 125.988 23.148 125.22 22.604C124.484 22.028 123.652 21.74 122.724 21.74C121.444 21.74 120.292 22.22 119.268 23.18C118.276 24.108 117.78 25.18 117.78 26.396C117.78 27.196 118.02 27.98 118.5 28.748C118.98 29.516 119.604 30.14 120.372 30.62C121.172 31.1 121.988 31.34 122.82 31.34C123.652 31.34 124.436 31.1 125.172 30.62C125.94 30.14 126.484 29.532 126.804 28.796L134.772 29.564C134.772 31.324 134.164 33.004 132.948 34.604C131.764 36.172 130.212 37.436 128.292 38.396C126.372 39.356 124.404 39.836 122.388 39.836ZM151.524 39.98L144.276 29.372L144.228 39.404L135.252 39.5V0.811997L144.324 0.331998L144.276 22.268L150.036 13.436L159.732 14.06L152.34 25.58L161.94 39.5L151.524 39.98ZM200.898 31.484L188.706 31.436L185.634 39.068L176.034 35.132L191.778 3.02L201.378 3.116L212.658 37.196L203.058 39.5L200.898 31.484ZM198.306 21.884L196.002 13.244L192.546 21.836L198.306 21.884ZM224.247 39.836C221.911 39.836 219.735 39.228 217.719 38.012C215.703 36.764 214.103 35.116 212.919 33.068C211.735 30.988 211.143 28.764 211.143 26.396C211.143 24.028 211.703 21.868 212.823 19.916C213.975 17.932 215.511 16.364 217.431 15.212C219.383 14.06 221.527 13.484 223.863 13.484C225.943 13.484 227.975 13.964 229.959 14.924C231.975 15.884 233.607 17.18 234.855 18.812C236.103 20.444 236.727 22.204 236.727 24.092L228.663 24.812C228.375 23.884 227.847 23.148 227.079 22.604C226.343 22.028 225.511 21.74 224.583 21.74C223.303 21.74 222.151 22.22 221.127 23.18C220.135 24.108 219.639 25.18 219.639 26.396C219.639 27.196 219.879 27.98 220.359 28.748C220.839 29.516 221.463 30.14 222.231 30.62C223.031 31.1 223.847 31.34 224.679 31.34C225.511 31.34 226.295 31.1 227.031 30.62C227.799 30.14 228.343 29.532 228.663 28.796L236.631 29.564C236.631 31.324 236.023 33.004 234.807 34.604C233.623 36.172 232.071 37.436 230.151 38.396C228.231 39.356 226.263 39.836 224.247 39.836ZM255.784 39.5V26.06C255.784 24.716 255.384 23.66 254.584 22.892C253.784 22.124 252.696 21.74 251.32 21.74C249.048 21.74 247.48 22.924 246.616 25.292L246.808 39.452L237.784 39.308L237.112 0.811997H246.232L246.472 16.892C247.432 15.804 248.68 14.924 250.216 14.252C251.752 13.58 253.304 13.244 254.872 13.244C257.816 13.244 260.152 14.316 261.88 16.46C263.64 18.604 264.536 21.5 264.568 25.148L264.664 39.5H255.784ZM270.621 12.092C269.693 12.092 268.781 11.852 267.885 11.372C267.021 10.86 266.301 10.172 265.725 9.308C265.181 8.444 264.909 7.516 264.909 6.524C264.909 4.988 265.485 3.708 266.637 2.684C267.821 1.66 269.229 1.148 270.861 1.148C272.397 1.148 273.629 1.612 274.557 2.54C275.517 3.468 275.997 4.7 275.997 6.236C275.997 7.932 275.485 9.34 274.461 10.46C273.437 11.548 272.157 12.092 270.621 12.092ZM265.389 13.916H275.421V39.356H266.157L265.389 13.916ZM289.539 13.724C293.539 13.724 296.643 14.892 298.851 17.228C301.059 19.564 302.163 22.748 302.163 26.78C302.163 27.452 302.147 27.964 302.115 28.316L285.123 28.508C285.507 29.564 286.035 30.444 286.707 31.148C287.411 31.82 288.227 32.188 289.155 32.252C291.715 32.444 293.571 31.692 294.723 29.996L301.587 31.964C301.171 33.468 300.371 34.828 299.187 36.044C298.003 37.228 296.579 38.156 294.915 38.828C293.283 39.5 291.587 39.836 289.827 39.836C289.411 39.836 289.091 39.82 288.867 39.788C286.659 39.628 284.611 38.908 282.723 37.628C280.867 36.348 279.379 34.668 278.259 32.588C277.171 30.508 276.627 28.236 276.627 25.772C276.627 25.292 276.643 24.924 276.675 24.668C276.803 22.556 277.443 20.668 278.595 19.004C279.779 17.34 281.315 16.044 283.203 15.116C285.123 14.188 287.235 13.724 289.539 13.724ZM290.019 19.676C287.651 19.484 286.035 20.476 285.171 22.652L293.283 22.7C293.155 21.772 292.771 21.052 292.131 20.54C291.523 20.028 290.819 19.74 290.019 19.676ZM325.144 13.916L318.232 39.5H306.568L301.096 13.868H310.312L312.904 28.508L315.88 13.916H325.144ZM336.367 13.724C340.367 13.724 343.471 14.892 345.679 17.228C347.887 19.564 348.991 22.748 348.991 26.78C348.991 27.452 348.975 27.964 348.943 28.316L331.951 28.508C332.335 29.564 332.863 30.444 333.535 31.148C334.239 31.82 335.055 32.188 335.983 32.252C338.543 32.444 340.399 31.692 341.551 29.996L348.415 31.964C347.999 33.468 347.199 34.828 346.015 36.044C344.831 37.228 343.407 38.156 341.743 38.828C340.111 39.5 338.415 39.836 336.655 39.836C336.239 39.836 335.919 39.82 335.695 39.788C333.487 39.628 331.439 38.908 329.551 37.628C327.695 36.348 326.207 34.668 325.087 32.588C323.999 30.508 323.455 28.236 323.455 25.772C323.455 25.292 323.471 24.924 323.503 24.668C323.631 22.556 324.271 20.668 325.423 19.004C326.607 17.34 328.143 16.044 330.031 15.116C331.951 14.188 334.063 13.724 336.367 13.724ZM336.847 19.676C334.479 19.484 332.863 20.476 331.999 22.652L340.111 22.7C339.983 21.772 339.599 21.052 338.959 20.54C338.351 20.028 337.647 19.74 336.847 19.676ZM388.96 39.5H379.648L379.6 26.156C379.6 24.396 379.392 23.18 378.976 22.508C378.592 21.836 377.872 21.5 376.816 21.5C376.016 21.5 375.36 21.996 374.848 22.988C374.368 23.948 374.128 25.18 374.128 26.684L374.176 27.596L374.128 27.452V39.356L365.104 39.452L365.008 26.156C365.008 24.684 364.736 23.548 364.192 22.748C363.648 21.916 362.88 21.5 361.888 21.5C360.864 21.5 360.08 21.932 359.536 22.796C358.992 23.66 358.72 24.892 358.72 26.492L358.768 27.5L358.72 27.404L359.104 39.548H350.08V14.252L358.336 13.964L358.384 15.884C359.216 15.244 360.224 14.748 361.408 14.396C362.624 14.044 363.936 13.868 365.344 13.868C368.288 13.868 370.512 14.62 372.016 16.124C372.816 15.228 373.872 14.588 375.184 14.204C376.496 13.82 378.208 13.628 380.32 13.628C383.296 13.628 385.456 14.812 386.8 17.18C388.176 19.516 388.88 23.308 388.912 28.556L388.96 39.5ZM402.414 13.724C406.414 13.724 409.518 14.892 411.726 17.228C413.934 19.564 415.038 22.748 415.038 26.78C415.038 27.452 415.022 27.964 414.99 28.316L397.998 28.508C398.382 29.564 398.91 30.444 399.582 31.148C400.286 31.82 401.102 32.188 402.03 32.252C404.59 32.444 406.446 31.692 407.598 29.996L414.462 31.964C414.046 33.468 413.246 34.828 412.062 36.044C410.878 37.228 409.454 38.156 407.79 38.828C406.158 39.5 404.462 39.836 402.702 39.836C402.286 39.836 401.966 39.82 401.742 39.788C399.534 39.628 397.486 38.908 395.598 37.628C393.742 36.348 392.254 34.668 391.134 32.588C390.046 30.508 389.502 28.236 389.502 25.772C389.502 25.292 389.518 24.924 389.55 24.668C389.678 22.556 390.318 20.668 391.47 19.004C392.654 17.34 394.19 16.044 396.078 15.116C397.998 14.188 400.11 13.724 402.414 13.724ZM402.894 19.676C400.526 19.484 398.91 20.476 398.046 22.652L406.158 22.7C406.03 21.772 405.646 21.052 405.006 20.54C404.398 20.028 403.694 19.74 402.894 19.676ZM433.791 13.484C436.159 13.484 438.031 14.284 439.407 15.884C440.783 17.452 441.439 19.676 441.375 22.556L441.087 39.5H432.303L432.351 28.22C432.351 25.884 432.031 24.22 431.391 23.228C430.783 22.236 429.871 21.74 428.655 21.74C427.663 21.74 426.799 22.028 426.063 22.604C425.359 23.18 424.927 24.156 424.767 25.532L424.815 39.5H416.127V13.916L424.719 13.772V16.22C425.935 15.42 427.359 14.764 428.991 14.252C430.623 13.74 432.223 13.484 433.791 13.484ZM462.939 35.468C461.883 37.036 460.587 38.204 459.051 38.972C457.547 39.708 455.707 40.076 453.531 40.076C450.619 40.076 448.443 39.34 447.003 37.868C445.563 36.364 444.843 33.964 444.843 30.668C444.843 29.74 444.923 28.524 445.083 27.02L445.755 21.5H441.963L441.627 13.916L446.715 13.82L447.387 8.204L455.931 7.772L455.259 13.724L460.635 13.628L461.547 21.452H454.347L453.867 25.772C453.803 26.348 453.771 26.764 453.771 27.02C453.771 28.3 454.011 29.308 454.491 30.044C454.971 30.78 455.611 31.148 456.411 31.148C457.211 31.148 457.915 30.972 458.523 30.62C459.131 30.268 459.803 29.644 460.539 28.748L462.939 35.468ZM482.622 22.748C481.182 21.948 479.902 21.372 478.782 21.02C477.662 20.636 476.59 20.444 475.566 20.444C474.606 20.444 473.806 20.588 473.166 20.876C472.558 21.164 472.254 21.532 472.254 21.98C472.254 22.78 473.374 23.18 475.614 23.18C478.878 23.18 481.422 23.82 483.246 25.1C485.07 26.38 485.982 28.156 485.982 30.428C485.982 32.156 485.438 33.756 484.35 35.228C483.294 36.668 481.854 37.82 480.03 38.684C478.238 39.548 476.27 39.98 474.126 39.98C472.014 39.98 469.998 39.596 468.078 38.828C466.158 38.028 464.638 36.972 463.518 35.66L468.366 30.188C469.134 30.86 470.014 31.388 471.006 31.772C471.998 32.124 473.006 32.3 474.03 32.3C475.022 32.3 475.854 32.14 476.526 31.82C477.23 31.468 477.582 31.052 477.582 30.572C477.582 30.188 477.358 29.916 476.91 29.756C476.462 29.596 475.71 29.516 474.654 29.516C474.462 29.548 474.174 29.564 473.79 29.564C472.19 29.564 470.67 29.212 469.23 28.508C467.822 27.772 466.686 26.796 465.822 25.58C464.958 24.364 464.526 23.052 464.526 21.644C464.526 20.172 465.022 18.796 466.014 17.516C467.006 16.236 468.334 15.212 469.998 14.444C471.662 13.644 473.422 13.244 475.278 13.244C477.134 13.244 478.99 13.612 480.846 14.348C482.734 15.084 484.446 16.108 485.982 17.42L482.622 22.748ZM483.487 44.348L488.431 29.084L497.599 32.54L490.543 45.548L483.487 44.348ZM14.9994 99.884C12.3754 99.884 9.76738 99.324 7.17538 98.204C4.58338 97.052 2.45538 95.532 0.791375 93.644L7.27138 86.54C8.29538 87.692 9.49538 88.604 10.8714 89.276C12.2794 89.916 13.6874 90.236 15.0954 90.236C16.3754 90.236 17.4154 89.996 18.2154 89.516C19.0154 89.036 19.4154 88.476 19.4154 87.836C19.4154 87.196 19.0314 86.732 18.2634 86.444C17.4954 86.156 16.5034 86.012 15.2874 86.012C12.9194 86.012 10.7274 85.516 8.71138 84.524C6.72738 83.532 5.12738 82.172 3.91138 80.444C2.72738 78.684 2.13538 76.716 2.13538 74.54C2.13538 72.3 2.75938 70.284 4.00738 68.492C5.25538 66.7 6.93538 65.292 9.04738 64.268C11.1594 63.244 13.4634 62.732 15.9594 62.732C18.4874 62.732 20.9514 63.228 23.3514 64.22C25.7514 65.18 27.8634 66.572 29.6874 68.396L24.2634 75.74C21.2554 73.532 18.4074 72.428 15.7194 72.428C14.5354 72.428 13.5114 72.636 12.6474 73.052C11.7834 73.468 11.3514 73.964 11.3514 74.54C11.3514 75.148 11.8634 75.612 12.8874 75.932C13.9114 76.22 15.1274 76.364 16.5354 76.364C19.0954 76.364 21.3834 76.764 23.3994 77.564C25.4154 78.364 26.9994 79.548 28.1514 81.116C29.3034 82.684 29.8794 84.588 29.8794 86.828C29.8794 89.228 29.1914 91.436 27.8154 93.452C26.4714 95.436 24.6634 97.004 22.3914 98.156C20.1194 99.308 17.6554 99.884 14.9994 99.884ZM49.4165 99.5V86.06C49.4165 84.716 49.0165 83.66 48.2165 82.892C47.4165 82.124 46.3285 81.74 44.9525 81.74C42.6805 81.74 41.1125 82.924 40.2485 85.292L40.4405 99.452L31.4165 99.308L30.7445 60.812H39.8645L40.1045 76.892C41.0645 75.804 42.3125 74.924 43.8485 74.252C45.3845 73.58 46.9365 73.244 48.5045 73.244C51.4485 73.244 53.7845 74.316 55.5125 76.46C57.2725 78.604 58.1685 81.5 58.2005 85.148L58.2965 99.5H49.4165ZM77.7346 99.5L77.6866 97.244C76.8226 97.98 75.7506 98.572 74.4706 99.02C73.1906 99.468 71.8786 99.692 70.5346 99.692C68.4226 99.692 66.4706 99.116 64.6786 97.964C62.8866 96.78 61.4626 95.196 60.4066 93.212C59.3506 91.228 58.8226 89.052 58.8226 86.684C58.8226 84.284 59.3666 82.092 60.4546 80.108C61.5426 78.124 63.0306 76.572 64.9186 75.452C66.8386 74.3 68.9506 73.724 71.2546 73.724C72.5026 73.724 73.6706 73.932 74.7586 74.348C75.8786 74.764 76.7746 75.34 77.4466 76.076V74.012H85.4146L86.5186 99.5H77.7346ZM72.1666 91.772C72.9986 91.772 73.7986 91.516 74.5666 91.004C75.3346 90.492 75.9426 89.82 76.3906 88.988C76.8386 88.124 77.0626 87.212 77.0626 86.252C77.0626 84.94 76.6306 83.852 75.7666 82.988C74.9346 82.092 73.8786 81.644 72.5986 81.644C71.1906 81.644 69.9586 82.14 68.9026 83.132C67.8466 84.124 67.3186 85.308 67.3186 86.684C67.3186 87.516 67.5426 88.332 67.9906 89.132C68.4706 89.932 69.0786 90.572 69.8146 91.052C70.5826 91.532 71.3666 91.772 72.1666 91.772ZM104.062 73.388C107.07 73.516 109.454 74.716 111.214 76.988C112.974 79.228 113.854 82.092 113.854 85.58C113.854 88.044 113.39 90.316 112.462 92.396C111.566 94.444 110.286 96.076 108.622 97.292C106.958 98.476 105.022 99.068 102.814 99.068C100.446 99.068 98.4783 98.636 96.9103 97.772L97.3423 110.972H87.8383V73.868L95.6623 73.916L95.9983 76.46C97.1183 75.532 98.4303 74.78 99.9343 74.204C101.438 73.628 102.814 73.356 104.062 73.388ZM101.854 91.244C103.134 91.244 104.158 90.828 104.926 89.996C105.726 89.164 106.126 88.028 106.126 86.588C106.126 85.084 105.694 83.884 104.83 82.988C103.966 82.06 102.83 81.596 101.422 81.596C100.046 81.596 98.8943 82.028 97.9663 82.892C97.0703 83.756 96.6223 84.844 96.6223 86.156C96.6223 87.532 97.1343 88.732 98.1583 89.756C99.2143 90.748 100.446 91.244 101.854 91.244ZM127.422 73.724C131.422 73.724 134.526 74.892 136.734 77.228C138.942 79.564 140.046 82.748 140.046 86.78C140.046 87.452 140.03 87.964 139.998 88.316L123.006 88.508C123.39 89.564 123.918 90.444 124.59 91.148C125.294 91.82 126.11 92.188 127.038 92.252C129.598 92.444 131.454 91.692 132.606 89.996L139.47 91.964C139.054 93.468 138.254 94.828 137.07 96.044C135.886 97.228 134.462 98.156 132.798 98.828C131.166 99.5 129.47 99.836 127.71 99.836C127.294 99.836 126.974 99.82 126.75 99.788C124.542 99.628 122.494 98.908 120.606 97.628C118.75 96.348 117.262 94.668 116.142 92.588C115.054 90.508 114.51 88.236 114.51 85.772C114.51 85.292 114.526 84.924 114.558 84.668C114.686 82.556 115.326 80.668 116.478 79.004C117.662 77.34 119.198 76.044 121.086 75.116C123.006 74.188 125.118 73.724 127.422 73.724ZM127.902 79.676C125.534 79.484 123.918 80.476 123.054 82.652L131.166 82.7C131.038 81.772 130.654 81.052 130.014 80.54C129.406 80.028 128.702 79.74 127.902 79.676ZM173.032 99.5L172.984 97.244C172.12 97.98 171.048 98.572 169.768 99.02C168.488 99.468 167.176 99.692 165.832 99.692C163.72 99.692 161.768 99.116 159.976 97.964C158.184 96.78 156.76 95.196 155.704 93.212C154.648 91.228 154.12 89.052 154.12 86.684C154.12 84.284 154.664 82.092 155.752 80.108C156.84 78.124 158.328 76.572 160.216 75.452C162.136 74.3 164.248 73.724 166.552 73.724C167.8 73.724 168.968 73.932 170.056 74.348C171.176 74.764 172.072 75.34 172.744 76.076V74.012H180.712L181.816 99.5H173.032ZM167.464 91.772C168.296 91.772 169.096 91.516 169.864 91.004C170.632 90.492 171.24 89.82 171.688 88.988C172.136 88.124 172.36 87.212 172.36 86.252C172.36 84.94 171.928 83.852 171.064 82.988C170.232 82.092 169.176 81.644 167.896 81.644C166.488 81.644 165.256 82.14 164.2 83.132C163.144 84.124 162.616 85.308 162.616 86.684C162.616 87.516 162.84 88.332 163.288 89.132C163.768 89.932 164.376 90.572 165.112 91.052C165.88 91.532 166.664 91.772 167.464 91.772ZM214.557 79.484C214.781 79.452 215.117 79.436 215.565 79.436C216.973 79.436 218.237 79.836 219.357 80.636C220.509 81.436 221.421 82.556 222.093 83.996C222.765 85.404 223.101 86.988 223.101 88.748C223.101 92.396 221.469 95.116 218.205 96.908C214.941 98.668 209.933 99.548 203.181 99.548H195.885L196.077 64.604C197.229 63.9 198.989 63.42 201.357 63.164C203.757 62.876 206.029 62.732 208.173 62.732C210.157 62.732 212.061 63.116 213.885 63.884C215.709 64.652 217.181 65.692 218.301 67.004C219.453 68.316 220.029 69.772 220.029 71.372C220.029 73.324 219.517 75.084 218.493 76.652C217.501 78.22 216.189 79.164 214.557 79.484ZM211.149 72.908C211.149 72.044 210.797 71.34 210.093 70.796C209.421 70.252 208.541 69.98 207.453 69.98C206.653 69.98 205.901 70.156 205.197 70.508V75.98C205.581 76.108 206.045 76.172 206.589 76.172C207.773 76.172 208.829 75.852 209.757 75.212C210.685 74.572 211.149 73.804 211.149 72.908ZM207.165 91.724C208.733 91.724 210.061 91.308 211.149 90.476C212.269 89.644 212.829 88.62 212.829 87.404C212.829 86.412 212.413 85.612 211.581 85.004C210.749 84.396 209.725 84.092 208.509 84.092C207.293 84.092 206.189 84.364 205.197 84.908V91.34C205.805 91.596 206.461 91.724 207.165 91.724ZM239.6 73.676C240.72 73.676 241.824 73.964 242.912 74.54C244 75.084 244.96 75.868 245.792 76.892L242.48 84.332C241.552 83.052 240.288 82.412 238.688 82.412C236.96 82.412 235.664 83.036 234.8 84.284C233.968 85.5 233.488 87.5 233.36 90.284V99.5H224.432V73.916H233.36V76.124C234.224 75.356 235.2 74.764 236.288 74.348C237.408 73.9 238.512 73.676 239.6 73.676ZM251.894 72.092C250.966 72.092 250.054 71.852 249.158 71.372C248.294 70.86 247.574 70.172 246.998 69.308C246.454 68.444 246.182 67.516 246.182 66.524C246.182 64.988 246.758 63.708 247.91 62.684C249.094 61.66 250.502 61.148 252.134 61.148C253.67 61.148 254.902 61.612 255.83 62.54C256.79 63.468 257.27 64.7 257.27 66.236C257.27 67.932 256.758 69.34 255.734 70.46C254.71 71.548 253.43 72.092 251.894 72.092ZM246.662 73.916H256.694V99.356H247.43L246.662 73.916ZM286.263 73.964L285.975 97.868C285.943 99.404 285.575 101.196 284.871 103.244C284.199 105.292 282.903 107.132 280.983 108.764C279.063 110.428 276.423 111.26 273.063 111.26C270.215 111.26 267.687 110.636 265.479 109.388C263.303 108.172 261.591 106.444 260.343 104.204C259.127 101.996 258.519 99.452 258.519 96.572L267.399 99.5C267.431 100.62 267.911 101.5 268.839 102.14C269.799 102.78 270.903 103.1 272.151 103.1C274.423 103.1 275.975 102.348 276.807 100.844C277.671 99.372 278.087 97.724 278.055 95.9V95.228C276.967 95.964 275.671 96.572 274.167 97.052C272.663 97.532 271.271 97.772 269.991 97.772C267.847 97.772 265.863 97.292 264.039 96.332C262.215 95.34 260.775 93.996 259.719 92.3C258.663 90.572 258.135 88.652 258.135 86.54C258.135 84.364 258.679 82.268 259.767 80.252C260.887 78.236 262.375 76.604 264.231 75.356C266.087 74.108 268.055 73.484 270.135 73.484C271.703 73.484 273.207 73.676 274.647 74.06C276.119 74.412 277.367 74.908 278.391 75.548L278.439 73.964H286.263ZM271.143 90.524C272.455 90.524 273.575 90.028 274.503 89.036C275.431 88.044 275.895 86.892 275.895 85.58C275.895 84.236 275.447 83.116 274.551 82.22C273.655 81.324 272.551 80.876 271.239 80.876C269.959 80.876 268.903 81.324 268.071 82.22C267.271 83.116 266.871 84.268 266.871 85.676C266.871 87.084 267.271 88.252 268.071 89.18C268.903 90.076 269.927 90.524 271.143 90.524ZM306.573 99.5V86.06C306.573 84.716 306.173 83.66 305.373 82.892C304.573 82.124 303.485 81.74 302.109 81.74C299.837 81.74 298.269 82.924 297.405 85.292L297.597 99.452L288.573 99.308L287.901 60.812H297.021L297.261 76.892C298.221 75.804 299.469 74.924 301.005 74.252C302.541 73.58 304.093 73.244 305.661 73.244C308.605 73.244 310.941 74.316 312.669 76.46C314.429 78.604 315.325 81.5 315.357 85.148L315.453 99.5H306.573ZM337.01 95.468C335.954 97.036 334.658 98.204 333.122 98.972C331.618 99.708 329.778 100.076 327.602 100.076C324.69 100.076 322.514 99.34 321.074 97.868C319.634 96.364 318.914 93.964 318.914 90.668C318.914 89.74 318.994 88.524 319.154 87.02L319.826 81.5H316.034L315.698 73.916L320.786 73.82L321.458 68.204L330.002 67.772L329.33 73.724L334.706 73.628L335.618 81.452H328.418L327.938 85.772C327.874 86.348 327.842 86.764 327.842 87.02C327.842 88.3 328.082 89.308 328.562 90.044C329.042 90.78 329.682 91.148 330.482 91.148C331.282 91.148 331.986 90.972 332.594 90.62C333.202 90.268 333.874 89.644 334.61 88.748L337.01 95.468ZM359.872 73.004L360.016 77.228L371.392 77.084L372.16 86.684L360.304 86.828L360.688 99.548H351.088V63.452L375.184 63.02V72.62L359.872 73.004ZM401.152 73.868V99.26H392.032V96.908C391.232 97.836 390.208 98.572 388.96 99.116C387.712 99.628 386.368 99.884 384.928 99.884C381.632 99.884 379.152 98.796 377.488 96.62C375.824 94.412 375.024 91.196 375.088 86.972L375.232 73.772H384.112L384.064 86.492C384.064 87.836 384.384 88.876 385.024 89.612C385.696 90.316 386.64 90.668 387.856 90.668C389.168 90.668 390.192 90.156 390.928 89.132C391.696 88.076 392.08 86.748 392.08 85.148V85.196L392.128 73.868H401.152ZM423.307 95.468C422.251 97.036 420.955 98.204 419.419 98.972C417.915 99.708 416.075 100.076 413.898 100.076C410.987 100.076 408.811 99.34 407.371 97.868C405.931 96.364 405.211 93.964 405.211 90.668C405.211 89.74 405.291 88.524 405.451 87.02L406.123 81.5H402.331L401.995 73.916L407.083 73.82L407.755 68.204L416.299 67.772L415.627 73.724L421.003 73.628L421.915 81.452H414.715L414.234 85.772C414.171 86.348 414.139 86.764 414.139 87.02C414.139 88.3 414.379 89.308 414.859 90.044C415.339 90.78 415.979 91.148 416.779 91.148C417.579 91.148 418.283 90.972 418.891 90.62C419.499 90.268 420.171 89.644 420.907 88.748L423.307 95.468ZM449.293 73.868V99.26H440.173V96.908C439.373 97.836 438.349 98.572 437.101 99.116C435.853 99.628 434.509 99.884 433.069 99.884C429.773 99.884 427.293 98.796 425.629 96.62C423.965 94.412 423.165 91.196 423.229 86.972L423.373 73.772H432.253L432.205 86.492C432.205 87.836 432.525 88.876 433.165 89.612C433.837 90.316 434.781 90.668 435.997 90.668C437.309 90.668 438.333 90.156 439.069 89.132C439.837 88.076 440.221 86.748 440.221 85.148V85.196L440.269 73.868H449.293ZM466.241 73.676C467.361 73.676 468.465 73.964 469.553 74.54C470.641 75.084 471.601 75.868 472.433 76.892L469.121 84.332C468.193 83.052 466.929 82.412 465.329 82.412C463.601 82.412 462.305 83.036 461.441 84.284C460.609 85.5 460.129 87.5 460.001 90.284V99.5H451.073V73.916H460.001V76.124C460.865 75.356 461.841 74.764 462.929 74.348C464.049 73.9 465.153 73.676 466.241 73.676ZM483.86 73.724C487.86 73.724 490.964 74.892 493.172 77.228C495.38 79.564 496.484 82.748 496.484 86.78C496.484 87.452 496.468 87.964 496.436 88.316L479.444 88.508C479.828 89.564 480.356 90.444 481.028 91.148C481.732 91.82 482.548 92.188 483.476 92.252C486.036 92.444 487.892 91.692 489.044 89.996L495.908 91.964C495.492 93.468 494.692 94.828 493.508 96.044C492.324 97.228 490.9 98.156 489.236 98.828C487.604 99.5 485.908 99.836 484.148 99.836C483.732 99.836 483.412 99.82 483.188 99.788C480.98 99.628 478.932 98.908 477.044 97.628C475.188 96.348 473.7 94.668 472.58 92.588C471.492 90.508 470.948 88.236 470.948 85.772C470.948 85.292 470.964 84.924 470.996 84.668C471.124 82.556 471.764 80.668 472.916 79.004C474.1 77.34 475.636 76.044 477.524 75.116C479.444 74.188 481.556 73.724 483.86 73.724ZM484.34 79.676C481.972 79.484 480.356 80.476 479.492 82.652L487.604 82.7C487.476 81.772 487.092 81.052 486.452 80.54C485.844 80.028 485.14 79.74 484.34 79.676ZM496.689 63.02H507.201L507.009 86.924L497.553 87.308L496.689 63.02ZM502.065 99.692C501.073 99.692 500.129 99.436 499.233 98.924C498.369 98.38 497.681 97.676 497.169 96.812C496.657 95.916 496.401 94.956 496.401 93.932C496.401 92.364 496.945 91.084 498.033 90.092C499.153 89.068 500.577 88.556 502.305 88.556C503.905 88.556 505.185 89.02 506.145 89.948C507.105 90.844 507.585 92.076 507.585 93.644C507.585 95.34 507.041 96.78 505.953 97.964C504.897 99.116 503.601 99.692 502.065 99.692ZM508.448 61.532L516.32 60.812V74.636H510.128L508.448 61.532ZM517.424 74.636V62.204L525.2 61.052L523.232 75.5L517.424 74.636Z" fill="white"/>
</svg>
