<svg width="104" height="92" viewBox="0 0 104 92" fill="none" xmlns="http://www.w3.org/2000/svg">
<path d="M10.2659 54.7814L11.6819 57.8584C11.8809 58.2904 12.2929 58.5854 12.7659 58.6334L16.1319 58.9764C17.2829 59.0934 17.7569 60.5154 16.9069 61.3014L14.4219 63.6004C14.0729 63.9234 13.9199 64.4064 14.0209 64.8714L14.7349 68.1824C14.9789 69.3144 13.7749 70.2054 12.7659 69.6394L9.81392 67.9834C9.39892 67.7504 8.89292 67.7544 8.48192 67.9944L5.55693 69.6974C4.55693 70.2794 3.33893 69.4084 3.56493 68.2724L4.22594 64.9504C4.31894 64.4834 4.15791 64.0024 3.80391 63.6854L1.28194 61.4264C0.419939 60.6544 0.870915 59.2254 2.01991 59.0894L5.37993 58.6914C5.85193 58.6354 6.25891 58.3344 6.45091 57.8994L7.81691 54.8004C8.28491 53.7424 9.78192 53.7304 10.2659 54.7814Z" fill="url(#paint0_linear_217_241)"/>
<path d="M96.4249 54.7814L97.8409 57.8584C98.0399 58.2904 98.4519 58.5854 98.9249 58.6334L102.291 58.9764C103.442 59.0934 103.916 60.5154 103.066 61.3014L100.581 63.6004C100.232 63.9234 100.079 64.4064 100.18 64.8714L100.894 68.1824C101.138 69.3144 99.9339 70.2054 98.9249 69.6394L95.9729 67.9834C95.5579 67.7504 95.0519 67.7544 94.6409 67.9944L91.7159 69.6974C90.7159 70.2794 89.4979 69.4084 89.7239 68.2724L90.3849 64.9504C90.4779 64.4834 90.3169 64.0024 89.9629 63.6854L87.4409 61.4264C86.5789 60.6544 87.0299 59.2254 88.1789 59.0894L91.5389 58.6914C92.0109 58.6354 92.4179 58.3344 92.6099 57.8994L93.9759 54.8004C94.4439 53.7424 95.9409 53.7304 96.4249 54.7814Z" fill="url(#paint1_linear_217_241)"/>
<path d="M12.439 30.1376L15.664 36.2856C16.703 38.2666 18.755 39.5076 20.992 39.5076H33.827L35.317 26.7706L12.439 30.1376Z" fill="url(#paint2_linear_217_241)"/>
<path d="M91.5529 30.7506L88.4329 36.3997C87.3739 38.3167 85.3569 39.5076 83.1669 39.5076H70.2439L68.7539 26.7706L91.5529 30.7506Z" fill="url(#paint3_linear_217_241)"/>
<path d="M34.252 62.7976L36.8109 85.1616C37.2059 88.6166 39.828 91.2036 42.933 91.2036H61.1349C64.2399 91.2036 66.8619 88.6166 67.2569 85.1616L69.8159 62.7976H34.252Z" fill="url(#paint4_linear_217_241)"/>
<path d="M91.3219 28.2747L57.3119 1.38866C55.0289 -0.416339 51.8199 -0.466325 49.4819 1.26568L13.0549 28.2417C11.7229 29.2277 12.4209 31.3417 14.0779 31.3417H28.0689C29.2449 31.3417 30.2369 32.2147 30.3869 33.3807L35.9759 76.9167C36.3929 80.1657 39.1589 82.5997 42.4349 82.5997H61.6389C64.9149 82.5997 67.6809 80.1667 68.0979 76.9167L73.6869 33.3807C73.8369 32.2147 74.8289 31.3417 76.0049 31.3417H90.2589C91.8849 31.3417 92.5999 29.2857 91.3219 28.2747Z" fill="url(#paint5_linear_217_241)"/>
<path d="M14.0769 31.3417H28.0679C29.2439 31.3417 30.2359 32.2147 30.3859 33.3807L33.0259 53.9437C45.5789 53.5867 58.1089 51.4877 69.3809 46.2677C70.3299 45.8277 71.2719 45.3707 72.2059 44.8987L73.6849 33.3807C73.8349 32.2147 74.8269 31.3417 76.0029 31.3417H90.2569C91.8869 31.3417 92.6009 29.2857 91.3229 28.2747L57.3129 1.38866C55.0299 -0.416339 51.8209 -0.466325 49.4829 1.26568L13.0559 28.2417C11.7229 29.2287 12.4199 31.3417 14.0769 31.3417Z" fill="url(#paint6_radial_217_241)"/>
<defs>
<linearGradient id="paint0_linear_217_241" x1="4.62813" y1="69.9416" x2="12.7271" y2="55.9137" gradientUnits="userSpaceOnUse">
<stop stop-color="#E69627"/>
<stop offset="1" stop-color="#F5DD4D"/>
</linearGradient>
<linearGradient id="paint1_linear_217_241" x1="90.7873" y1="69.9416" x2="98.8864" y2="55.9137" gradientUnits="userSpaceOnUse">
<stop stop-color="#E69627"/>
<stop offset="1" stop-color="#F5DD4D"/>
</linearGradient>
<linearGradient id="paint2_linear_217_241" x1="23.8776" y1="29.0771" x2="23.8776" y2="41.2456" gradientUnits="userSpaceOnUse">
<stop stop-color="#DC7E22"/>
<stop offset="1" stop-color="#F6BA26"/>
</linearGradient>
<linearGradient id="paint3_linear_217_241" x1="80.1529" y1="29.0771" x2="80.1529" y2="41.2456" gradientUnits="userSpaceOnUse">
<stop stop-color="#DC7E22"/>
<stop offset="1" stop-color="#F6BA26"/>
</linearGradient>
<linearGradient id="paint4_linear_217_241" x1="51.5183" y1="83.205" x2="51.328" y2="90.7236" gradientUnits="userSpaceOnUse">
<stop stop-color="#DC7E22"/>
<stop offset="1" stop-color="#F6BA26"/>
</linearGradient>
<linearGradient id="paint5_linear_217_241" x1="32.3742" y1="67.1387" x2="65.2523" y2="10.1922" gradientUnits="userSpaceOnUse">
<stop stop-color="#E69627"/>
<stop offset="1" stop-color="#F5DD4D"/>
</linearGradient>
<radialGradient id="paint6_radial_217_241" cx="0" cy="0" r="1" gradientUnits="userSpaceOnUse" gradientTransform="translate(67.147 72.8519) scale(55.0147 55.0147)">
<stop stop-color="white"/>
<stop offset="1" stop-color="white" stop-opacity="0"/>
</radialGradient>
</defs>
</svg>
