<svg width="411" height="79" viewBox="0 0 411 79" fill="none" xmlns="http://www.w3.org/2000/svg">
<path d="M406.605 32C406.72 32.528 411.306 54.043 394.17 59.917C381.366 64.317 370.511 59.642 367.3 76.726C367.246 77.005 367.198 77.295 367.145 77.598C367.145 77.598 367.141 77.469 367.143 77.221C367.141 77.114 367.14 76.965 367.143 76.804C367.138 76.795 367.142 76.794 367.142 76.783C367.152 72.796 367.546 58.098 374.396 54.671C383.308 50.216 401.396 53.656 406.131 34.503C406.328 33.697 406.486 32.862 406.605 32Z" fill="url(#paint0_linear_112_154)"/>
<path d="M409.737 49.645C409.832 50.185 413.126 71.241 395.109 71.671C382.215 71.965 371.603 65.223 367.542 76.399C367.409 76.762 367.276 77.151 367.152 77.555C367.152 77.555 368.161 62.058 375.813 60.644C384.868 58.978 401.818 65.991 408.814 51.941C409.164 51.217 409.471 50.451 409.737 49.645Z" fill="url(#paint1_linear_112_154)"/>
<path d="M387.6 72.381C387.6 72.381 387.34 72.981 386.811 73.811C385.6 75.676 382.994 78.644 379.188 78.044L370.118 76.614C368.106 76.297 367 77.642 367 77.642C367 77.642 367.136 77.171 367.411 76.469C368.376 73.994 371.049 68.685 376.6 69.981C386.561 72.309 387.6 72.381 387.6 72.381Z" fill="url(#paint2_linear_112_154)"/>
<path d="M371.995 74.869C376.87 75.053 382.445 78.935 386.811 73.811C385.6 75.676 382.994 78.644 379.188 78.044L370.118 76.614C368.106 76.297 367 77.6421 367 77.6421C367 77.6421 367.136 77.1711 367.411 76.4691C368.332 75.5591 369.821 74.787 371.995 74.869Z" fill="url(#paint3_linear_112_154)"/>
<path d="M408.815 51.94C409.165 51.217 409.472 50.451 409.737 49.645C409.832 50.185 413.126 71.241 395.109 71.671C382.215 71.965 371.603 65.223 367.542 76.399C369.758 65.387 375.185 64.832 388.134 67.051C402.939 69.583 407.7 57.464 408.815 51.94Z" fill="url(#paint4_linear_112_154)"/>
<path d="M406.605 32C406.72 32.528 411.306 54.043 394.17 59.917C381.366 64.317 370.511 59.642 367.3 76.726C367.232 76.923 367.152 77.555 367.152 77.555C367.174 77.335 367.244 76.56 367.243 76.55C369.617 55.142 391.087 60.452 399.057 51.736C404.817 45.426 405.995 38.161 406.13 34.504C406.328 33.697 406.486 32.862 406.605 32Z" fill="url(#paint5_linear_112_154)"/>
<path d="M3.42642 0C3.31142 0.528 -1.27458 22.043 15.8614 27.917C28.6654 32.317 39.5204 27.642 42.7314 44.726C42.7854 45.005 42.8334 45.295 42.8864 45.598C42.8864 45.598 42.8904 45.469 42.8884 45.221C42.8904 45.114 42.8914 44.965 42.8884 44.804C42.8934 44.795 42.8894 44.794 42.8894 44.783C42.8794 40.796 42.4854 26.098 35.6354 22.671C26.7234 18.216 8.63542 21.656 3.90042 2.50299C3.70242 1.69699 3.54442 0.862 3.42642 0Z" fill="url(#paint6_linear_112_154)"/>
<path d="M0.294417 17.645C0.199417 18.185 -3.09458 39.241 14.9224 39.671C27.8164 39.965 38.4284 33.223 42.4894 44.399C42.6224 44.762 42.7554 45.151 42.8794 45.555C42.8794 45.555 41.8704 30.058 34.2184 28.644C25.1634 26.978 8.21342 33.991 1.21742 19.941C0.866421 19.217 0.559417 18.451 0.294417 17.645Z" fill="url(#paint7_linear_112_154)"/>
<path d="M22.4314 40.381C22.4314 40.381 22.6914 40.981 23.2204 41.811C24.4314 43.676 27.0364 46.644 30.8434 46.044L39.9134 44.614C41.9254 44.297 43.0314 45.642 43.0314 45.642C43.0314 45.642 42.8954 45.171 42.6204 44.469C41.6554 41.994 38.9824 36.685 33.4314 37.981C23.4704 40.309 22.4314 40.381 22.4314 40.381Z" fill="url(#paint8_linear_112_154)"/>
<path d="M38.0354 42.869C33.1604 43.053 27.5854 46.935 23.2194 41.811C24.4304 43.676 27.0354 46.644 30.8424 46.044L39.9124 44.614C41.9244 44.297 43.0304 45.6421 43.0304 45.6421C43.0304 45.6421 42.8944 45.1711 42.6194 44.4691C41.6984 43.5591 40.2094 42.787 38.0354 42.869Z" fill="url(#paint9_linear_112_154)"/>
<path d="M1.21642 19.94C0.866422 19.217 0.559417 18.451 0.294417 17.645C0.199417 18.185 -3.09458 39.241 14.9224 39.671C27.8164 39.965 38.4284 33.223 42.4894 44.399C40.2734 33.387 34.8464 32.832 21.8974 35.051C7.09242 37.583 2.33042 25.464 1.21642 19.94Z" fill="url(#paint10_linear_112_154)"/>
<path d="M3.42642 0C3.31142 0.528 -1.27458 22.043 15.8614 27.917C28.6654 32.317 39.5204 27.642 42.7314 44.726C42.7994 44.923 42.8794 45.555 42.8794 45.555C42.8574 45.335 42.7874 44.56 42.7884 44.55C40.4144 23.142 18.9444 28.452 10.9754 19.736C5.21542 13.426 4.03742 6.161 3.90242 2.504C3.70242 1.697 3.54442 0.862 3.42642 0Z" fill="url(#paint11_linear_112_154)"/>
<path d="M223.126 30.5906L224.196 32.9147C224.346 33.2407 224.657 33.4636 225.014 33.4996L227.557 33.7586C228.426 33.8476 228.785 34.9216 228.143 35.5146L226.266 37.2507C226.002 37.4947 225.887 37.8596 225.963 38.2106L226.502 40.7116C226.686 41.5666 225.777 42.2397 225.014 41.8117L222.784 40.5606C222.471 40.3846 222.088 40.3876 221.778 40.5686L219.569 41.8547C218.814 42.2947 217.893 41.6367 218.064 40.7787L218.563 38.2687C218.633 37.9167 218.512 37.5527 218.244 37.3137L216.339 35.6076C215.688 35.0246 216.029 33.9447 216.896 33.8417L219.434 33.5417C219.79 33.4997 220.098 33.2716 220.243 32.9436L221.275 30.6027C221.629 29.8057 222.76 29.7966 223.126 30.5906Z" fill="url(#paint12_linear_112_154)"/>
<path d="M241.247 30.5906L242.317 32.9147C242.467 33.2407 242.778 33.4636 243.136 33.4996L245.679 33.7586C246.548 33.8476 246.906 34.9216 246.265 35.5146L244.388 37.2507C244.124 37.4947 244.009 37.8596 244.085 38.2106L244.624 40.7116C244.808 41.5666 243.899 42.2397 243.136 41.8117L240.906 40.5606C240.593 40.3846 240.21 40.3876 239.9 40.5686L237.691 41.8547C236.936 42.2947 236.015 41.6367 236.186 40.7787L236.685 38.2687C236.755 37.9167 236.634 37.5527 236.366 37.3137L234.461 35.6076C233.81 35.0246 234.151 33.9447 235.018 33.8417L237.556 33.5417C237.913 33.4997 238.22 33.2716 238.365 32.9436L239.397 30.6027C239.75 29.8057 240.881 29.7966 241.247 30.5906Z" fill="url(#paint13_linear_112_154)"/>
<path d="M259.368 30.5906L260.438 32.9147C260.588 33.2407 260.899 33.4636 261.257 33.4996L263.8 33.7586C264.669 33.8476 265.027 34.9216 264.386 35.5146L262.509 37.2507C262.245 37.4947 262.13 37.8596 262.206 38.2106L262.745 40.7116C262.929 41.5666 262.02 42.2397 261.257 41.8117L259.027 40.5606C258.714 40.3846 258.331 40.3876 258.021 40.5686L255.812 41.8547C255.057 42.2947 254.136 41.6367 254.307 40.7787L254.806 38.2687C254.876 37.9167 254.755 37.5527 254.488 37.3137L252.583 35.6076C251.932 35.0246 252.273 33.9447 253.14 33.8417L255.678 33.5417C256.034 33.4997 256.342 33.2716 256.487 32.9436L257.519 30.6027C257.872 29.8057 259.003 29.7966 259.368 30.5906Z" fill="url(#paint14_linear_112_154)"/>
<path d="M277.49 30.5906L278.56 32.9147C278.71 33.2407 279.022 33.4636 279.379 33.4996L281.922 33.7586C282.791 33.8476 283.149 34.9216 282.508 35.5146L280.631 37.2507C280.367 37.4947 280.252 37.8596 280.328 38.2106L280.867 40.7116C281.051 41.5666 280.142 42.2397 279.38 41.8117L277.15 40.5606C276.837 40.3846 276.454 40.3876 276.144 40.5686L273.935 41.8547C273.18 42.2947 272.259 41.6367 272.43 40.7787L272.929 38.2687C272.999 37.9167 272.878 37.5527 272.61 37.3137L270.705 35.6076C270.054 35.0246 270.395 33.9447 271.262 33.8417L273.8 33.5417C274.157 33.4997 274.464 33.2716 274.609 32.9436L275.641 30.6027C275.993 29.8057 277.124 29.7966 277.49 30.5906Z" fill="url(#paint15_linear_112_154)"/>
<path d="M295.611 30.5907L296.681 32.9147C296.831 33.2407 297.143 33.4636 297.5 33.4996L300.042 33.7597C300.911 33.8487 301.269 34.9227 300.628 35.5157L298.751 37.2516C298.487 37.4956 298.372 37.8607 298.448 38.2117L298.987 40.7127C299.171 41.5677 298.262 42.2407 297.499 41.8127L295.269 40.5617C294.956 40.3857 294.573 40.3887 294.263 40.5697L292.054 41.8556C291.299 42.2956 290.378 41.6376 290.549 40.7796L291.048 38.2697C291.118 37.9177 290.997 37.5536 290.729 37.3146L288.824 35.6087C288.173 35.0257 288.514 33.9456 289.381 33.8426L291.919 33.5426C292.275 33.5006 292.583 33.2727 292.728 32.9447L293.76 30.6037C294.114 29.8057 295.245 29.7967 295.611 30.5907Z" fill="url(#paint16_linear_112_154)"/>
<path d="M134.065 77.2968C133.897 77.7871 133.574 78.0323 133.097 78.0323H127.619C127.206 78.0323 127 77.8646 127 77.5291C127 77.4388 127.019 77.3355 127.058 77.2194L135.826 51.5548C135.903 51.3226 136.026 51.1484 136.194 51.0323C136.374 50.9032 136.581 50.8387 136.813 50.8387H143.219C143.684 50.8387 143.923 51.0581 143.935 51.4968L145.019 68.3936L153.284 51.4968C153.49 51.0581 153.819 50.8387 154.271 50.8387H160.697C160.929 50.8387 161.103 50.9032 161.219 51.0323C161.335 51.1484 161.387 51.3226 161.374 51.5548L159.245 77.2388C159.219 77.4968 159.123 77.6968 158.955 77.8388C158.8 77.9807 158.594 78.0517 158.335 78.0517H152.839C152.361 78.0517 152.142 77.8065 152.181 77.3162L153.806 62.0258L146.374 77.3742C146.168 77.8129 145.832 78.0323 145.368 78.0323H140.645C140.194 78.0323 139.961 77.8129 139.948 77.3742L139.019 62.0258L134.065 77.2968ZM185.243 55.2129C185.488 54.8129 185.83 54.6129 186.269 54.6129H189.985C190.411 54.6129 190.624 54.7871 190.624 55.1355C190.624 55.1742 190.611 55.2581 190.585 55.3871L185.94 77.2581C185.824 77.7742 185.508 78.0323 184.991 78.0323H181.14C180.714 78.0323 180.462 77.8323 180.385 77.4323L180.153 76.271C179.211 77.0065 178.224 77.5678 177.191 77.9549C176.172 78.342 175.037 78.5355 173.785 78.5355C171.862 78.5355 170.14 78.1162 168.617 77.2775C167.095 76.4388 165.908 75.2839 165.056 73.8129C164.204 72.3291 163.778 70.671 163.778 68.8388C163.778 68.0517 163.869 67.2194 164.049 66.342C164.527 64.1226 165.475 62.0904 166.895 60.2452C168.314 58.3871 170.037 56.9226 172.062 55.8517C174.088 54.7677 176.191 54.2258 178.372 54.2258C179.688 54.2258 180.875 54.4323 181.933 54.8452C182.991 55.2581 183.817 55.8194 184.411 56.5291L185.243 55.2129ZM175.043 72.2452C176.114 72.2452 177.14 72 178.12 71.5097C179.114 71.0065 179.959 70.3162 180.656 69.4388C181.353 68.5484 181.824 67.5484 182.069 66.4388C182.172 65.9484 182.224 65.4904 182.224 65.0646C182.224 64.1742 182.03 63.3871 181.643 62.7033C181.256 62.0065 180.714 61.471 180.017 61.0968C179.32 60.7097 178.508 60.5162 177.578 60.5162C176.508 60.5162 175.482 60.7742 174.501 61.2904C173.52 61.8065 172.682 62.5162 171.985 63.4194C171.301 64.3097 170.843 65.3162 170.611 66.4388C170.508 66.9549 170.456 67.4258 170.456 67.8517C170.456 68.7291 170.643 69.4968 171.017 70.1549C171.391 70.8129 171.92 71.3291 172.604 71.7033C173.301 72.0646 174.114 72.2452 175.043 72.2452ZM209.325 54.2258C210.938 54.2258 212.344 54.5419 213.544 55.1742C214.744 55.7936 215.667 56.6904 216.312 57.8646C216.957 59.0388 217.28 60.4129 217.28 61.9871C217.28 62.8258 217.183 63.7226 216.989 64.6775L214.318 77.2581C214.202 77.7742 213.886 78.0323 213.37 78.0323H208.338C207.912 78.0323 207.699 77.8581 207.699 77.5097C207.699 77.471 207.712 77.3871 207.738 77.2581L210.254 65.4129C210.357 64.9484 210.409 64.4581 210.409 63.942C210.409 62.8065 210.086 61.9097 209.441 61.2517C208.809 60.5807 207.918 60.2452 206.77 60.2452C205.802 60.2452 204.867 60.4775 203.964 60.942C203.06 61.3936 202.293 61.9936 201.66 62.742C201.041 63.4904 200.641 64.2839 200.46 65.1226L197.886 77.2581C197.77 77.7742 197.454 78.0323 196.938 78.0323H191.964C191.538 78.0323 191.325 77.8581 191.325 77.5097C191.325 77.471 191.338 77.3871 191.364 77.2581L197.46 48.5548C197.576 48.0387 197.893 47.7806 198.409 47.7806H203.383C203.809 47.7806 204.022 47.9548 204.022 48.3032C204.022 48.3419 204.009 48.4258 203.983 48.5548L202.183 56.9936C203.293 56.1549 204.48 55.4839 205.744 54.9806C207.009 54.4774 208.202 54.2258 209.325 54.2258ZM241.001 55.2129C241.246 54.8129 241.588 54.6129 242.027 54.6129H245.743C246.169 54.6129 246.382 54.7871 246.382 55.1355C246.382 55.1742 246.369 55.2581 246.343 55.3871L241.698 77.2581C241.582 77.7742 241.265 78.0323 240.749 78.0323H236.898C236.472 78.0323 236.22 77.8323 236.143 77.4323L235.911 76.271C234.969 77.0065 233.982 77.5678 232.949 77.9549C231.93 78.342 230.794 78.5355 229.543 78.5355C227.62 78.5355 225.898 78.1162 224.375 77.2775C222.852 76.4388 221.665 75.2839 220.814 73.8129C219.962 72.3291 219.536 70.671 219.536 68.8388C219.536 68.0517 219.627 67.2194 219.807 66.342C220.285 64.1226 221.233 62.0904 222.652 60.2452C224.072 58.3871 225.794 56.9226 227.82 55.8517C229.846 54.7677 231.949 54.2258 234.13 54.2258C235.446 54.2258 236.633 54.4323 237.691 54.8452C238.749 55.2581 239.575 55.8194 240.169 56.5291L241.001 55.2129ZM230.801 72.2452C231.872 72.2452 232.898 72 233.878 71.5097C234.872 71.0065 235.717 70.3162 236.414 69.4388C237.111 68.5484 237.582 67.5484 237.827 66.4388C237.93 65.9484 237.982 65.4904 237.982 65.0646C237.982 64.1742 237.788 63.3871 237.401 62.7033C237.014 62.0065 236.472 61.471 235.775 61.0968C235.078 60.7097 234.265 60.5162 233.336 60.5162C232.265 60.5162 231.24 60.7742 230.259 61.2904C229.278 61.8065 228.44 62.5162 227.743 63.4194C227.059 64.3097 226.601 65.3162 226.369 66.4388C226.265 66.9549 226.214 67.4258 226.214 67.8517C226.214 68.7291 226.401 69.4968 226.775 70.1549C227.149 70.8129 227.678 71.3291 228.362 71.7033C229.059 72.0646 229.872 72.2452 230.801 72.2452ZM255.521 78.6129C252.27 78.6129 249.425 77.5871 246.986 75.5355C246.779 75.3678 246.676 75.1807 246.676 74.9742C246.676 74.8194 246.741 74.6452 246.87 74.4517L249.444 70.7355C249.599 70.5033 249.786 70.3871 250.005 70.3871C250.199 70.3871 250.373 70.4581 250.528 70.6C251.354 71.2323 252.244 71.7484 253.199 72.1484C254.167 72.5484 255.108 72.7484 256.025 72.7484C256.889 72.7484 257.496 72.6065 257.844 72.3226C258.192 72.0388 258.367 71.7291 258.367 71.3936C258.367 70.9678 258.07 70.5355 257.476 70.0968C256.896 69.6581 255.979 69.1742 254.728 68.6452C253.192 68 251.979 67.1742 251.089 66.1678C250.199 65.1484 249.754 63.7678 249.754 62.0258C249.754 60.8388 250.031 59.6517 250.586 58.4646C251.154 57.2646 252.083 56.2517 253.373 55.4258C254.676 54.6 256.36 54.1871 258.425 54.1871C259.934 54.1871 261.334 54.4323 262.625 54.9226C263.915 55.4 265.063 56.0904 266.07 56.9936C266.263 57.1613 266.36 57.342 266.36 57.5355C266.36 57.7291 266.27 57.9162 266.089 58.0968L262.838 61.4839C262.67 61.6646 262.483 61.7549 262.276 61.7549C262.083 61.7549 261.908 61.6839 261.754 61.542C261.212 61.142 260.625 60.8258 259.992 60.5936C259.373 60.3484 258.734 60.2258 258.076 60.2258C257.56 60.2258 257.16 60.3613 256.876 60.6323C256.605 60.8904 256.47 61.2258 256.47 61.6388C256.47 61.9226 256.547 62.1742 256.702 62.3936C256.857 62.6129 257.134 62.8323 257.534 63.0517C257.934 63.271 258.521 63.5291 259.296 63.8258C261.141 64.5097 262.534 65.3678 263.476 66.4C264.431 67.4323 264.908 68.7549 264.908 70.3678C264.908 71.6581 264.586 72.9355 263.941 74.2C263.296 75.4646 262.263 76.5162 260.844 77.3549C259.438 78.1936 257.663 78.6129 255.521 78.6129ZM273.382 52.0968C272.956 52.0968 272.743 51.9226 272.743 51.5742C272.743 51.5355 272.756 51.4516 272.782 51.3226L273.75 46.7742C273.801 46.529 273.905 46.3419 274.059 46.2129C274.214 46.071 274.421 46 274.679 46H279.808C280.234 46 280.447 46.1871 280.447 46.5613C280.447 46.6516 280.44 46.7226 280.427 46.7742L279.459 51.3226C279.343 51.8387 279.027 52.0968 278.511 52.0968H273.382ZM273.885 77.2581C273.769 77.7742 273.453 78.0323 272.937 78.0323H267.905C267.479 78.0323 267.266 77.8581 267.266 77.5097C267.266 77.471 267.279 77.3871 267.305 77.2581L271.95 55.3871C272.066 54.871 272.382 54.6129 272.898 54.6129H277.93C278.356 54.6129 278.569 54.7871 278.569 55.1355C278.569 55.1742 278.556 55.2581 278.53 55.3871L273.885 77.2581ZM287.76 78.6129C284.508 78.6129 281.663 77.5871 279.224 75.5355C279.018 75.3678 278.914 75.1807 278.914 74.9742C278.914 74.8194 278.979 74.6452 279.108 74.4517L281.682 70.7355C281.837 70.5033 282.024 70.3871 282.244 70.3871C282.437 70.3871 282.611 70.4581 282.766 70.6C283.592 71.2323 284.482 71.7484 285.437 72.1484C286.405 72.5484 287.347 72.7484 288.263 72.7484C289.127 72.7484 289.734 72.6065 290.082 72.3226C290.431 72.0388 290.605 71.7291 290.605 71.3936C290.605 70.9678 290.308 70.5355 289.714 70.0968C289.134 69.6581 288.218 69.1742 286.966 68.6452C285.431 68 284.218 67.1742 283.327 66.1678C282.437 65.1484 281.992 63.7678 281.992 62.0258C281.992 60.8388 282.269 59.6517 282.824 58.4646C283.392 57.2646 284.321 56.2517 285.611 55.4258C286.914 54.6 288.598 54.1871 290.663 54.1871C292.173 54.1871 293.573 54.4323 294.863 54.9226C296.153 55.4 297.302 56.0904 298.308 56.9936C298.502 57.1613 298.598 57.342 298.598 57.5355C298.598 57.7291 298.508 57.9162 298.327 58.0968L295.076 61.4839C294.908 61.6646 294.721 61.7549 294.514 61.7549C294.321 61.7549 294.147 61.6839 293.992 61.542C293.45 61.142 292.863 60.8258 292.231 60.5936C291.611 60.3484 290.973 60.2258 290.314 60.2258C289.798 60.2258 289.398 60.3613 289.114 60.6323C288.844 60.8904 288.708 61.2258 288.708 61.6388C288.708 61.9226 288.785 62.1742 288.94 62.3936C289.095 62.6129 289.373 62.8323 289.773 63.0517C290.173 63.271 290.76 63.5291 291.534 63.8258C293.379 64.5097 294.773 65.3678 295.714 66.4C296.669 67.4323 297.147 68.7549 297.147 70.3678C297.147 71.6581 296.824 72.9355 296.179 74.2C295.534 75.4646 294.502 76.5162 293.082 77.3549C291.676 78.1936 289.902 78.6129 287.76 78.6129ZM329.566 55.2517C329.786 54.8258 330.121 54.6129 330.573 54.6129H336.476C336.657 54.6129 336.798 54.6516 336.902 54.729C337.005 54.8064 337.057 54.9097 337.057 55.0388C337.057 55.1678 337.005 55.3226 336.902 55.5033L324.36 77.4129C324.127 77.8258 323.786 78.0323 323.334 78.0323H318.379C317.94 78.0323 317.689 77.8258 317.624 77.4129L316.231 68.9549L311.508 77.4129C311.276 77.8258 310.94 78.0323 310.502 78.0323H305.469C305.031 78.0323 304.779 77.8258 304.715 77.4129L301.502 55.5033C301.463 55.2452 301.515 55.0323 301.657 54.8645C301.811 54.6968 302.031 54.6129 302.315 54.6129H307.386C307.837 54.6129 308.082 54.8258 308.121 55.2517L309.65 70.0775L316.424 55.271C316.631 54.8323 316.966 54.6129 317.431 54.6129H323.257C323.437 54.6129 323.573 54.6516 323.663 54.729C323.766 54.8064 323.818 54.9097 323.818 55.0388C323.818 55.1807 323.773 55.3355 323.682 55.5033L320.798 60.671L322.095 70.0775L329.566 55.2517ZM356.559 55.2129C356.805 54.8129 357.147 54.6129 357.585 54.6129H361.301C361.727 54.6129 361.94 54.7871 361.94 55.1355C361.94 55.1742 361.927 55.2581 361.901 55.3871L357.256 77.2581C357.14 77.7742 356.824 78.0323 356.308 78.0323H352.456C352.03 78.0323 351.779 77.8323 351.701 77.4323L351.469 76.271C350.527 77.0065 349.54 77.5678 348.508 77.9549C347.488 78.342 346.353 78.5355 345.101 78.5355C343.179 78.5355 341.456 78.1162 339.934 77.2775C338.411 76.4388 337.224 75.2839 336.372 73.8129C335.521 72.3291 335.095 70.671 335.095 68.8388C335.095 68.0517 335.185 67.2194 335.366 66.342C335.843 64.1226 336.792 62.0904 338.211 60.2452C339.63 58.3871 341.353 56.9226 343.379 55.8517C345.405 54.7677 347.508 54.2258 349.688 54.2258C351.005 54.2258 352.192 54.4323 353.25 54.8452C354.308 55.2581 355.134 55.8194 355.727 56.5291L356.559 55.2129ZM346.359 72.2452C347.43 72.2452 348.456 72 349.437 71.5097C350.43 71.0065 351.276 70.3162 351.972 69.4388C352.669 68.5484 353.14 67.5484 353.385 66.4388C353.488 65.9484 353.54 65.4904 353.54 65.0646C353.54 64.1742 353.347 63.3871 352.959 62.7033C352.572 62.0065 352.03 61.471 351.334 61.0968C350.637 60.7097 349.824 60.5162 348.895 60.5162C347.824 60.5162 346.798 60.7742 345.818 61.2904C344.837 61.8065 343.998 62.5162 343.301 63.4194C342.618 64.3097 342.159 65.3162 341.927 66.4388C341.824 66.9549 341.772 67.4258 341.772 67.8517C341.772 68.7291 341.959 69.4968 342.334 70.1549C342.708 70.8129 343.237 71.3291 343.921 71.7033C344.618 72.0646 345.43 72.2452 346.359 72.2452Z" fill="url(#paint17_linear_112_154)"/>
<path d="M55.0065 46.2581C54.8903 46.7742 54.5742 47.0323 54.0581 47.0323H48.6387C48.2129 47.0323 48 46.8581 48 46.5097C48 46.471 48.0129 46.3871 48.0387 46.2581L53.4968 20.6129C53.5484 20.3677 53.6516 20.1806 53.8065 20.0516C53.9613 19.9097 54.1677 19.8387 54.4258 19.8387H64.8968C66.5871 19.8387 68.0387 20.1355 69.2516 20.729C70.4645 21.3097 71.3871 22.1355 72.0193 23.2064C72.6645 24.2646 72.9871 25.4904 72.9871 26.8839C72.9871 27.5549 72.9097 28.2517 72.7548 28.9742C72.3548 30.8581 71.6129 32.5162 70.529 33.9484C69.4581 35.3807 68.1032 36.4968 66.4645 37.2968C64.8258 38.0839 63.0064 38.4775 61.0064 38.4775H56.6516L55.0065 46.2581ZM61.7806 32.1871C62.4 32.1871 62.9871 32.0517 63.5419 31.7807C64.1097 31.5097 64.5871 31.1355 64.9742 30.6581C65.3742 30.1678 65.6387 29.6258 65.7677 29.0323C65.8064 28.8129 65.8258 28.6065 65.8258 28.4129C65.8258 27.7291 65.5742 27.1807 65.071 26.7678C64.5677 26.342 63.9097 26.1291 63.0968 26.1291H59.2839L57.9871 32.1871H61.7806ZM88.7173 23.2258C90.3044 23.2258 91.7753 23.6839 93.1302 24.6C93.3237 24.7291 93.4205 24.8968 93.4205 25.1033C93.4205 25.2581 93.3431 25.4452 93.1882 25.6646L90.0721 29.8452C89.8657 30.1291 89.6399 30.271 89.3947 30.271C89.2399 30.271 89.0979 30.2258 88.9689 30.1355C88.1302 29.6194 87.2915 29.3613 86.4528 29.3613C85.6399 29.3613 84.8141 29.5936 83.9753 30.0581C83.1366 30.5226 82.3882 31.2129 81.7302 32.1291C81.0721 33.0323 80.6076 34.1226 80.3366 35.4L78.0334 46.2581C77.9173 46.7742 77.6011 47.0323 77.085 47.0323H72.0528C71.627 47.0323 71.414 46.8581 71.414 46.5097C71.414 46.471 71.427 46.3871 71.4528 46.2581L76.0979 24.3871C76.214 23.871 76.5302 23.6129 77.0463 23.6129H80.8979C81.3108 23.6129 81.5624 23.8129 81.6528 24.2129L82.1173 26.4775C82.9431 25.4581 83.9237 24.6646 85.0592 24.0968C86.2076 23.5161 87.427 23.2258 88.7173 23.2258ZM104.828 23.071C107.048 23.071 108.919 23.4645 110.441 24.2517C111.964 25.0258 113.099 26.1097 113.848 27.5033C114.609 28.8839 114.99 30.4904 114.99 32.3226C114.99 33.9742 114.712 35.5549 114.158 37.0646C114.028 37.4646 113.732 37.6646 113.267 37.6646H97.5897C97.7962 38.4775 98.1639 39.1871 98.693 39.7936C99.2349 40.3871 99.8671 40.8452 100.59 41.1678C101.312 41.4775 102.054 41.6323 102.816 41.6323C104.067 41.6323 105.267 41.3226 106.416 40.7033C106.596 40.6 106.758 40.5484 106.899 40.5484C107.132 40.5484 107.325 40.6839 107.48 40.9549L109.493 44.3613C109.583 44.5033 109.628 44.6581 109.628 44.8258C109.628 45.0452 109.512 45.2452 109.28 45.4258C108.261 46.1613 107.132 46.7097 105.893 47.071C104.654 47.4323 103.441 47.6129 102.254 47.6129C99.9575 47.6129 97.9446 47.1484 96.2155 46.2194C94.4865 45.2775 93.1575 44.0065 92.2284 42.4065C91.2994 40.7936 90.8349 38.9936 90.8349 37.0065C90.8349 34.8775 91.4026 32.7355 92.5381 30.5807C93.6865 28.4129 95.3188 26.6194 97.4349 25.2C99.5639 23.7806 102.028 23.071 104.828 23.071ZM108.603 32.5742C108.603 31.9678 108.428 31.3807 108.08 30.8129C107.732 30.2323 107.222 29.7678 106.551 29.4194C105.893 29.0581 105.119 28.8775 104.228 28.8775C102.938 28.8775 101.77 29.2452 100.725 29.9807C99.6801 30.7033 98.8671 31.6517 98.2865 32.8258H108.603V32.5742ZM124.325 47.6129C121.074 47.6129 118.229 46.5871 115.79 44.5355C115.584 44.3678 115.48 44.1807 115.48 43.9742C115.48 43.8194 115.545 43.6452 115.674 43.4517L118.248 39.7355C118.403 39.5033 118.59 39.3871 118.809 39.3871C119.003 39.3871 119.177 39.4581 119.332 39.6C120.158 40.2323 121.048 40.7484 122.003 41.1484C122.971 41.5484 123.913 41.7484 124.829 41.7484C125.693 41.7484 126.3 41.6065 126.648 41.3226C126.996 41.0388 127.171 40.7291 127.171 40.3936C127.171 39.9678 126.874 39.5355 126.28 39.0968C125.7 38.6581 124.784 38.1742 123.532 37.6452C121.996 37 120.784 36.1742 119.893 35.1678C119.003 34.1484 118.558 32.7678 118.558 31.0258C118.558 29.8388 118.835 28.6517 119.39 27.4646C119.958 26.2646 120.887 25.2517 122.177 24.4258C123.48 23.6 125.164 23.1871 127.229 23.1871C128.738 23.1871 130.138 23.4323 131.429 23.9226C132.719 24.4 133.867 25.0904 134.874 25.9936C135.067 26.1613 135.164 26.342 135.164 26.5355C135.164 26.7291 135.074 26.9162 134.893 27.0968L131.642 30.4839C131.474 30.6646 131.287 30.7549 131.08 30.7549C130.887 30.7549 130.713 30.6839 130.558 30.542C130.016 30.142 129.429 29.8258 128.796 29.5936C128.177 29.3484 127.538 29.2258 126.88 29.2258C126.364 29.2258 125.964 29.3613 125.68 29.6323C125.409 29.8904 125.274 30.2258 125.274 30.6388C125.274 30.9226 125.351 31.1742 125.506 31.3936C125.661 31.6129 125.938 31.8323 126.338 32.0517C126.738 32.271 127.325 32.5291 128.1 32.8258C129.945 33.5097 131.338 34.3678 132.28 35.4C133.235 36.4323 133.713 37.7549 133.713 39.3678C133.713 40.6581 133.39 41.9355 132.745 43.2C132.1 44.4646 131.067 45.5162 129.648 46.3549C128.242 47.1936 126.467 47.6129 124.325 47.6129ZM142.651 46.2581C142.535 46.7742 142.218 47.0323 141.702 47.0323H136.67C136.244 47.0323 136.031 46.8581 136.031 46.5097C136.031 46.471 136.044 46.3871 136.07 46.2581L139.593 29.7097H137.657C137.231 29.7097 137.018 29.5226 137.018 29.1484C137.018 29.0581 137.025 28.9871 137.038 28.9355L138.005 24.3871C138.122 23.871 138.438 23.6129 138.954 23.6129H140.851L141.741 19.3935C141.844 18.9161 142.135 18.6323 142.612 18.5419L147.916 17.5548C147.967 17.5419 148.038 17.5355 148.128 17.5355C148.296 17.5355 148.419 17.5806 148.496 17.671C148.586 17.7613 148.632 17.8839 148.632 18.0387C148.632 18.129 148.625 18.2 148.612 18.2516L147.489 23.6129H151.128C151.554 23.6129 151.767 23.7871 151.767 24.1355C151.767 24.1742 151.754 24.2581 151.728 24.3871L150.761 28.9355C150.709 29.1807 150.606 29.3742 150.451 29.5162C150.296 29.6452 150.09 29.7097 149.832 29.7097H146.173L142.651 46.2581ZM171.54 24.2129C171.785 23.8129 172.127 23.6129 172.565 23.6129H176.282C176.707 23.6129 176.92 23.7871 176.92 24.1355C176.92 24.1742 176.907 24.2581 176.882 24.3871L172.236 46.2581C172.12 46.7742 171.804 47.0323 171.288 47.0323H167.436C167.011 47.0323 166.759 46.8323 166.682 46.4323L166.449 45.271C165.507 46.0065 164.52 46.5678 163.488 46.9549C162.469 47.342 161.333 47.5355 160.082 47.5355C158.159 47.5355 156.436 47.1162 154.914 46.2775C153.391 45.4388 152.204 44.2839 151.353 42.8129C150.501 41.3291 150.075 39.671 150.075 37.8388C150.075 37.0517 150.165 36.2194 150.346 35.342C150.824 33.1226 151.772 31.0904 153.191 29.2452C154.611 27.3871 156.333 25.9226 158.359 24.8517C160.385 23.7677 162.488 23.2258 164.669 23.2258C165.985 23.2258 167.172 23.4323 168.23 23.8452C169.288 24.2581 170.114 24.8194 170.707 25.5291L171.54 24.2129ZM161.34 41.2452C162.411 41.2452 163.436 41 164.417 40.5097C165.411 40.0065 166.256 39.3162 166.953 38.4388C167.649 37.5484 168.12 36.5484 168.365 35.4388C168.469 34.9484 168.52 34.4904 168.52 34.0646C168.52 33.1742 168.327 32.3871 167.94 31.7033C167.553 31.0065 167.011 30.471 166.314 30.0968C165.617 29.7097 164.804 29.5162 163.875 29.5162C162.804 29.5162 161.778 29.7742 160.798 30.2904C159.817 30.8065 158.978 31.5162 158.282 32.4194C157.598 33.3097 157.14 34.3162 156.907 35.4388C156.804 35.9549 156.753 36.4258 156.753 36.8517C156.753 37.7291 156.94 38.4968 157.314 39.1549C157.688 39.8129 158.217 40.3291 158.901 40.7033C159.598 41.0646 160.411 41.2452 161.34 41.2452ZM186.06 47.6129C182.809 47.6129 179.963 46.5871 177.525 44.5355C177.318 44.3678 177.215 44.1807 177.215 43.9742C177.215 43.8194 177.28 43.6452 177.409 43.4517L179.983 39.7355C180.138 39.5033 180.325 39.3871 180.544 39.3871C180.738 39.3871 180.912 39.4581 181.067 39.6C181.892 40.2323 182.783 40.7484 183.738 41.1484C184.705 41.5484 185.647 41.7484 186.563 41.7484C187.428 41.7484 188.034 41.6065 188.383 41.3226C188.731 41.0388 188.905 40.7291 188.905 40.3936C188.905 39.9678 188.609 39.5355 188.015 39.0968C187.434 38.6581 186.518 38.1742 185.267 37.6452C183.731 37 182.518 36.1742 181.628 35.1678C180.738 34.1484 180.292 32.7678 180.292 31.0258C180.292 29.8388 180.57 28.6517 181.125 27.4646C181.692 26.2646 182.621 25.2517 183.912 24.4258C185.215 23.6 186.899 23.1871 188.963 23.1871C190.473 23.1871 191.873 23.4323 193.163 23.9226C194.454 24.4 195.602 25.0904 196.609 25.9936C196.802 26.1613 196.899 26.342 196.899 26.5355C196.899 26.7291 196.809 26.9162 196.628 27.0968L193.376 30.4839C193.209 30.6646 193.021 30.7549 192.815 30.7549C192.621 30.7549 192.447 30.6839 192.292 30.542C191.751 30.142 191.163 29.8258 190.531 29.5936C189.912 29.3484 189.273 29.2258 188.615 29.2258C188.099 29.2258 187.699 29.3613 187.415 29.6323C187.144 29.8904 187.009 30.2258 187.009 30.6388C187.009 30.9226 187.086 31.1742 187.241 31.3936C187.396 31.6129 187.673 31.8323 188.073 32.0517C188.473 32.271 189.06 32.5291 189.834 32.8258C191.68 33.5097 193.073 34.3678 194.015 35.4C194.97 36.4323 195.447 37.7549 195.447 39.3678C195.447 40.6581 195.125 41.9355 194.48 43.2C193.834 44.4646 192.802 45.5162 191.383 46.3549C189.976 47.1936 188.202 47.6129 186.06 47.6129ZM203.921 21.0968C203.495 21.0968 203.282 20.9226 203.282 20.5742C203.282 20.5355 203.295 20.4516 203.321 20.3226L204.289 15.7742C204.34 15.529 204.443 15.3419 204.598 15.2129C204.753 15.071 204.96 15 205.218 15H210.347C210.772 15 210.985 15.1871 210.985 15.5613C210.985 15.6516 210.979 15.7226 210.966 15.7742L209.998 20.3226C209.882 20.8387 209.566 21.0968 209.05 21.0968H203.921ZM204.424 46.2581C204.308 46.7742 203.992 47.0323 203.476 47.0323H198.443C198.018 47.0323 197.805 46.8581 197.805 46.5097C197.805 46.471 197.818 46.3871 197.843 46.2581L202.489 24.3871C202.605 23.871 202.921 23.6129 203.437 23.6129H208.469C208.895 23.6129 209.108 23.7871 209.108 24.1355C209.108 24.1742 209.095 24.2581 209.069 24.3871L204.424 46.2581Z" fill="url(#paint18_linear_112_154)"/>
<defs>
<linearGradient id="paint0_linear_112_154" x1="366.421" y1="55.4679" x2="407.766" y2="54.1153" gradientUnits="userSpaceOnUse">
<stop stop-color="#E69627"/>
<stop offset="1" stop-color="#F5DD4D"/>
</linearGradient>
<linearGradient id="paint1_linear_112_154" x1="368.179" y1="62.2412" x2="409.357" y2="65.0021" gradientUnits="userSpaceOnUse">
<stop stop-color="#E69627"/>
<stop offset="1" stop-color="#F5DD4D"/>
</linearGradient>
<linearGradient id="paint2_linear_112_154" x1="367.332" y1="73.4152" x2="387.395" y2="74.991" gradientUnits="userSpaceOnUse">
<stop stop-color="#E69627"/>
<stop offset="1" stop-color="#F5DD4D"/>
</linearGradient>
<linearGradient id="paint3_linear_112_154" x1="367.21" y1="74.9646" x2="386.601" y2="76.4876" gradientUnits="userSpaceOnUse">
<stop stop-color="#DC7E22"/>
<stop offset="1" stop-color="#F6BA26"/>
</linearGradient>
<linearGradient id="paint4_linear_112_154" x1="368.529" y1="61.6739" x2="409.396" y2="64.4139" gradientUnits="userSpaceOnUse">
<stop stop-color="#DC7E22"/>
<stop offset="1" stop-color="#F6BA26"/>
</linearGradient>
<linearGradient id="paint5_linear_112_154" x1="366.429" y1="55.4462" x2="407.765" y2="54.0939" gradientUnits="userSpaceOnUse">
<stop stop-color="#DC7E22"/>
<stop offset="1" stop-color="#F6BA26"/>
</linearGradient>
<linearGradient id="paint6_linear_112_154" x1="43.6102" y1="23.4679" x2="2.26487" y2="22.1153" gradientUnits="userSpaceOnUse">
<stop stop-color="#E69627"/>
<stop offset="1" stop-color="#F5DD4D"/>
</linearGradient>
<linearGradient id="paint7_linear_112_154" x1="41.852" y1="30.2412" x2="0.674071" y2="33.0021" gradientUnits="userSpaceOnUse">
<stop stop-color="#E69627"/>
<stop offset="1" stop-color="#F5DD4D"/>
</linearGradient>
<linearGradient id="paint8_linear_112_154" x1="42.6991" y1="41.4152" x2="22.6362" y2="42.991" gradientUnits="userSpaceOnUse">
<stop stop-color="#E69627"/>
<stop offset="1" stop-color="#F5DD4D"/>
</linearGradient>
<linearGradient id="paint9_linear_112_154" x1="42.8208" y1="42.9646" x2="23.4303" y2="44.4876" gradientUnits="userSpaceOnUse">
<stop stop-color="#DC7E22"/>
<stop offset="1" stop-color="#F6BA26"/>
</linearGradient>
<linearGradient id="paint10_linear_112_154" x1="41.5015" y1="29.6739" x2="0.63464" y2="32.4139" gradientUnits="userSpaceOnUse">
<stop stop-color="#DC7E22"/>
<stop offset="1" stop-color="#F6BA26"/>
</linearGradient>
<linearGradient id="paint11_linear_112_154" x1="43.602" y1="23.4463" x2="2.26557" y2="22.0939" gradientUnits="userSpaceOnUse">
<stop stop-color="#DC7E22"/>
<stop offset="1" stop-color="#F6BA26"/>
</linearGradient>
<linearGradient id="paint12_linear_112_154" x1="218.867" y1="42.0421" x2="224.985" y2="31.4461" gradientUnits="userSpaceOnUse">
<stop stop-color="#E69627"/>
<stop offset="1" stop-color="#F5DD4D"/>
</linearGradient>
<linearGradient id="paint13_linear_112_154" x1="236.989" y1="42.0421" x2="243.106" y2="31.4461" gradientUnits="userSpaceOnUse">
<stop stop-color="#E69627"/>
<stop offset="1" stop-color="#F5DD4D"/>
</linearGradient>
<linearGradient id="paint14_linear_112_154" x1="255.11" y1="42.0421" x2="261.228" y2="31.4461" gradientUnits="userSpaceOnUse">
<stop stop-color="#E69627"/>
<stop offset="1" stop-color="#F5DD4D"/>
</linearGradient>
<linearGradient id="paint15_linear_112_154" x1="273.231" y1="42.0421" x2="279.349" y2="31.446" gradientUnits="userSpaceOnUse">
<stop stop-color="#E69627"/>
<stop offset="1" stop-color="#F5DD4D"/>
</linearGradient>
<linearGradient id="paint16_linear_112_154" x1="291.353" y1="42.042" x2="297.47" y2="31.4461" gradientUnits="userSpaceOnUse">
<stop stop-color="#E69627"/>
<stop offset="1" stop-color="#F5DD4D"/>
</linearGradient>
<linearGradient id="paint17_linear_112_154" x1="127.871" y1="64.0323" x2="362.871" y2="64.0323" gradientUnits="userSpaceOnUse">
<stop stop-color="#5885E5"/>
<stop offset="1" stop-color="#5986E5"/>
</linearGradient>
<linearGradient id="paint18_linear_112_154" x1="47.6516" y1="33.0323" x2="209.652" y2="33.0323" gradientUnits="userSpaceOnUse">
<stop stop-color="#5885E5"/>
<stop offset="1" stop-color="#5986E5"/>
</linearGradient>
</defs>
</svg>
