<svg width="52" height="52" viewBox="0 0 52 52" fill="none" xmlns="http://www.w3.org/2000/svg">
<path d="M0 25.8065C0 13.6412 0 7.55853 3.77926 3.77926C7.55853 0 13.6412 0 25.8065 0C37.9717 0 44.0543 0 47.8337 3.77926C51.6129 7.55853 51.6129 13.6412 51.6129 25.8065C51.6129 37.9717 51.6129 44.0543 47.8337 47.8337C44.0543 51.6129 37.9717 51.6129 25.8065 51.6129C13.6412 51.6129 7.55853 51.6129 3.77926 47.8337C0 44.0543 0 37.9717 0 25.8065Z" fill="#006BFF"/>
<path d="M30.9677 33.5484C31.6804 33.5484 32.2711 34.1318 32.1295 34.8302C31.8794 36.0638 31.2716 37.2071 30.3684 38.1103C29.1586 39.3203 27.5175 40 25.8065 40C24.0954 40 22.4545 39.3203 21.2445 38.1103C20.3413 37.2071 19.7335 36.0638 19.4835 34.8302C19.3418 34.1318 19.9325 33.5484 20.6452 33.5484H30.9677Z" fill="white"/>
<path d="M33.6804 22.9374C32.992 23.1218 32.5705 23.8419 32.9195 24.4632C33.2869 25.1172 33.795 25.6879 34.4132 26.1308C35.3838 26.8263 36.5654 27.1639 37.757 27.0857C38.9485 27.0076 40.0761 26.5188 40.9476 25.7026C41.8192 24.8863 42.3807 23.793 42.5365 22.6092C42.6924 21.4253 42.433 20.224 41.8025 19.2099C41.1719 18.196 40.2092 17.432 39.0785 17.0481C37.9478 16.6643 36.719 16.6844 35.6014 17.105C34.8897 17.3729 34.2512 17.7926 33.7271 18.3292C33.2292 18.839 33.45 19.6437 34.0671 20L34.7217 20.3779C35.7172 20.9528 35.5209 22.4443 34.4105 22.7418L33.6804 22.9374Z" fill="white"/>
<path d="M17.9327 22.9374C18.621 23.1218 19.0426 23.8419 18.6936 24.4632C18.3262 25.1172 17.8181 25.6879 17.2 26.1308C16.2294 26.8263 15.0476 27.1639 13.8561 27.0857C12.6646 27.0076 11.537 26.5188 10.6654 25.7026C9.79391 24.8863 9.23237 23.793 9.07651 22.6092C8.92066 21.4253 9.1801 20.224 9.81067 19.2099C10.4412 18.196 11.4039 17.432 12.5346 17.0481C13.6653 16.6643 14.8942 16.6844 16.0118 17.105C16.7234 17.3729 17.3619 17.7926 17.8861 18.3292C18.384 18.839 18.1631 19.6437 17.5459 20L16.8914 20.3779C15.8959 20.9528 16.0923 22.4443 17.2026 22.7418L17.9327 22.9374Z" fill="white"/>
</svg>
